<svg width="30" height="30" viewBox="0 0 30 30" fill="none" xmlns="http://www.w3.org/2000/svg">
<rect width="30" height="30" rx="15" fill="#333333"/>
<path fill-rule="evenodd" clip-rule="evenodd" d="M6.9375 15C6.9375 10.5472 10.5472 6.9375 15 6.9375C19.4528 6.9375 23.0625 10.5472 23.0625 15C23.0625 19.4528 19.4528 23.0625 15 23.0625C10.5472 23.0625 6.9375 19.4528 6.9375 15ZM16.125 14.25C16.125 13.8358 15.7892 13.5 15.375 13.5H13.875C13.4608 13.5 13.125 13.8358 13.125 14.25C13.125 14.6642 13.4608 15 13.875 15H14.625L14.625 18.75C14.625 19.1642 14.9608 19.5 15.375 19.5C15.7892 19.5 16.125 19.1642 16.125 18.75V14.25ZM16.125 11.25C16.125 10.8358 15.7892 10.5 15.375 10.5C14.9608 10.5 14.625 10.8358 14.625 11.25V12C14.625 12.4142 14.9608 12.75 15.375 12.75C15.7892 12.75 16.125 12.4142 16.125 12V11.25Z" fill="white"/>
</svg>
