<svg width="30" height="30" viewBox="0 0 30 30" fill="none" xmlns="http://www.w3.org/2000/svg">
<rect width="30" height="30" rx="15" fill="#5956E0"/>
<circle cx="3" cy="3" r="3" transform="matrix(-1 0 0 1 18 8.25)" fill="white" stroke="white" stroke-width="1.5"/>
<path d="M9.75 18.701C9.75 18.0557 10.1556 17.4801 10.7633 17.2631V17.2631C13.503 16.2846 16.497 16.2846 19.2367 17.2631V17.2631C19.8444 17.4801 20.25 18.0557 20.25 18.701V19.6876C20.25 20.5782 19.4612 21.2623 18.5796 21.1364L18.2857 21.0944C16.1063 20.783 13.8937 20.783 11.7143 21.0944L11.4204 21.1364C10.5388 21.2623 9.75 20.5782 9.75 19.6876V18.701Z" fill="white" stroke="white" stroke-width="1.5"/>
</svg>
