<svg width="24" height="24" viewBox="0 0 24 24" fill="none" xmlns="http://www.w3.org/2000/svg">
<path d="M14.4389 22H9.56104C9.22402 22 8.95131 21.7379 8.95131 21.4141V17.6276L5.75674 19.7774C5.62516 19.8666 5.46199 19.9044 5.30122 19.8741C5.22236 19.8608 5.147 19.8327 5.07946 19.7913C5.01192 19.75 4.95353 19.6963 4.90762 19.6332L2.11023 15.7931C1.91731 15.5282 1.98402 15.1631 2.26027 14.9771L6.68504 12L2.26031 9.02281C1.98402 8.83684 1.91731 8.4718 2.11027 8.20684L4.90762 4.3668C4.95352 4.30374 5.01191 4.25001 5.07945 4.20867C5.14699 4.16734 5.22236 4.13921 5.30122 4.1259C5.46199 4.09902 5.62516 4.13449 5.75674 4.22262L8.95131 6.37238V2.58594C8.95131 2.26207 9.22402 2 9.56104 2H14.4389C14.776 2 15.0487 2.26207 15.0487 2.58594V6.37238L18.2432 4.22262C18.3759 4.13404 18.5396 4.09929 18.6987 4.1259C18.8577 4.15277 18.9994 4.23918 19.0924 4.3668L21.8897 8.20687C22.0827 8.4718 22.016 8.83687 21.7397 9.02285L17.3149 12L21.7397 14.9772C22.016 15.1632 22.0827 15.5282 21.8897 15.7932L19.0924 19.6332C19.0465 19.6963 18.9881 19.75 18.9205 19.7914C18.853 19.8327 18.7776 19.8608 18.6987 19.8741C18.5392 19.9045 18.3754 19.8667 18.2432 19.7774L15.0487 17.6276V21.4141C15.0487 21.7379 14.776 22 14.4389 22Z" fill="#191919"/>
<path d="M21.8898 8.20687L19.0924 4.3668C19.0465 4.30374 18.9881 4.25001 18.9205 4.20867C18.853 4.16734 18.7776 4.13921 18.6988 4.1259C18.5396 4.09929 18.3759 4.13404 18.2432 4.22262L15.0487 6.37238V2.58594C15.0487 2.26207 14.776 2 14.4389 2H12V22H14.4389C14.776 22 15.0487 21.7379 15.0487 21.4141V17.6276L18.2432 19.7774C18.3754 19.8666 18.5392 19.9044 18.6988 19.8741C18.7776 19.8608 18.853 19.8327 18.9205 19.7913C18.9881 19.75 19.0465 19.6963 19.0924 19.6332L21.8898 15.7931C22.0827 15.5282 22.016 15.1631 21.7397 14.9771L17.3149 12L21.7397 9.02281C22.016 8.83684 22.0827 8.4718 21.8898 8.20687Z" fill="#191919"/>
</svg>
