<svg width="20" height="20" viewBox="0 0 20 20" fill="none" xmlns="http://www.w3.org/2000/svg">
<path fill-rule="evenodd" clip-rule="evenodd" d="M9.86244 2.08333C7.20107 2.08333 5.0436 4.24079 5.0436 6.90217V8.54383C5.0436 9.42412 4.47505 10.1941 4.02846 10.9527C3.79859 11.3431 3.66675 11.7982 3.66675 12.2841C3.66675 13.553 4.57336 14.6418 5.8303 14.816C7.07851 14.9891 8.63821 15.1632 9.8624 15.1632C11.0866 15.1632 12.6463 14.9891 13.8945 14.816C15.1514 14.6418 16.0581 13.553 16.0581 12.2841C16.0581 11.7982 15.9262 11.3431 15.6964 10.9527C15.2498 10.1941 14.6813 9.42419 14.6813 8.54393V6.90217C14.6813 4.2408 12.5238 2.08333 9.86244 2.08333Z" fill="#333333"/>
<path d="M3.66675 12.2841L3.06675 12.2841L3.66675 12.2841ZM5.8303 14.816L5.74789 15.4104L5.74789 15.4104L5.8303 14.816ZM13.8945 14.816L13.8121 14.2217L13.8121 14.2217L13.8945 14.816ZM15.6964 10.9527L16.2134 10.6483L15.6964 10.9527ZM5.6436 6.90217C5.6436 4.57217 7.53244 2.68333 9.86244 2.68333V1.48333C6.8697 1.48333 4.4436 3.90942 4.4436 6.90217H5.6436ZM5.6436 8.54383V6.90217H4.4436V8.54383H5.6436ZM4.26675 12.2841C4.26675 11.9081 4.36847 11.5578 4.54551 11.2571L3.51141 10.6483C3.22872 11.1285 3.06675 11.6883 3.06675 12.2841L4.26675 12.2841ZM5.91271 14.2217C4.96623 14.0905 4.26675 13.2676 4.26675 12.2841L3.06675 12.2841C3.06675 13.8384 4.18049 15.193 5.74789 15.4104L5.91271 14.2217ZM9.8624 14.5632C8.6817 14.5632 7.15605 14.3941 5.91271 14.2217L5.74789 15.4104C7.00097 15.5841 8.59471 15.7632 9.8624 15.7632V14.5632ZM13.8121 14.2217C12.5688 14.3941 11.0431 14.5632 9.8624 14.5632V15.7632C11.1301 15.7632 12.7238 15.5841 13.9769 15.4104L13.8121 14.2217ZM15.4581 12.2841C15.4581 13.2676 14.7586 14.0905 13.8121 14.2217L13.9769 15.4104C15.5443 15.193 16.6581 13.8384 16.6581 12.2841H15.4581ZM15.1793 11.2571C15.3563 11.5578 15.4581 11.9081 15.4581 12.2841H16.6581C16.6581 11.6883 16.4961 11.1285 16.2134 10.6483L15.1793 11.2571ZM14.0813 6.90217V8.54393H15.2813V6.90217H14.0813ZM9.86244 2.68333C12.1924 2.68333 14.0813 4.57217 14.0813 6.90217H15.2813C15.2813 3.90943 12.8552 1.48333 9.86244 1.48333V2.68333ZM16.2134 10.6483C15.9669 10.2296 15.7444 9.89982 15.5584 9.5264C15.3811 9.17044 15.2813 8.85373 15.2813 8.54393H14.0813C14.0813 9.11439 14.2658 9.62279 14.4843 10.0615C14.6942 10.4828 14.9792 10.9173 15.1793 11.2571L16.2134 10.6483ZM4.4436 8.54383C4.4436 8.85364 4.34381 9.17036 4.16646 9.52633C3.98042 9.89976 3.75794 10.2295 3.51141 10.6483L4.54551 11.2571C4.74558 10.9172 5.03066 10.4827 5.24054 10.0614C5.45912 9.62272 5.6436 9.11431 5.6436 8.54383H4.4436Z" fill="#333333"/>
<path d="M11.5835 16.9936C11.2135 17.55 10.5808 17.9168 9.86248 17.9168C9.14414 17.9168 8.51146 17.55 8.14147 16.9936" stroke="#333333" stroke-width="1.2" stroke-linecap="round"/>
</svg>
