<svg width="67" height="30" viewBox="0 0 67 30" fill="none" xmlns="http://www.w3.org/2000/svg">
<path d="M52.6039 14.3882H47.1641L41.4535 10.5333C38.2438 8.3489 34.4539 7.19244 30.5738 7.19244H17L1.14453 12.011V13.7457H2.5625V19.271H1.14453V23.6398L3.40039 26.5952H64.3086V23.537L65.8555 20.0291L62.8777 17.8061C59.9129 15.5832 56.3164 14.3882 52.6039 14.3882Z" fill="#F2F2F2"/>
<path d="M13.2617 8.99139H11.0832L1.14453 12.011L3.82578 12.0753L13.2617 8.99139Z" fill="#485143"/>
<path d="M38.7335 8.99139H37.2898L45.2046 14.3882H47.164L41.4535 10.5205C40.5898 9.94226 39.6746 9.37688 38.7335 8.99139Z" fill="#747E6C"/>
<path d="M64.3086 26.5952H3.40039L1.14453 23.6398H64.3086V26.5952ZM5.35977 19.271H2.5625V13.7457H5.35977L6.71328 16.8938L5.35977 19.271Z" fill="#D2D2D2"/>
<path d="M43.168 14.1312H33.5L11.9082 10.816L18.1602 8.99139H29.7359C33.7707 8.99139 37.7152 10.2506 41.0023 12.5893L43.168 14.1312Z" fill="#485143"/>
<path d="M46.5196 23.5242L25.5208 22.2778L21.5247 17.2665L25.7012 15.4161L46.1329 18.5C46.1329 19.181 45.5399 19.7207 44.8567 19.6436L27.2352 17.652L25.6754 18.4229L27.854 20.4788L45.5399 22.432C46.0942 22.4834 46.5196 22.9588 46.5196 23.5242Z" fill="#D2D2D2"/>
<path d="M61.8594 19.3995H65.8555V20.6844H61.8594V19.3995Z" fill="#333333"/>
<path d="M12.5011 29.8076C15.9682 29.8076 18.7789 27.0059 18.7789 23.5499C18.7789 20.0938 15.9682 17.2922 12.5011 17.2922C9.03403 17.2922 6.22339 20.0938 6.22339 23.5499C6.22339 27.0059 9.03403 29.8076 12.5011 29.8076Z" fill="#323D2C"/>
<path d="M12.7848 17.2922C12.2692 17.2665 11.7536 17.305 11.2637 17.4078C10.7094 17.5106 10.8126 18.3202 11.3669 18.3202H11.4571C14.8989 18.3202 17.7348 21.147 17.7348 24.5779V24.6678C17.7219 25.2203 18.534 25.3231 18.6501 24.7706C18.7403 24.2823 18.7919 23.7812 18.7661 23.2544C18.6243 20.042 16.0075 17.4335 12.7848 17.2922Z" fill="#485143"/>
<path d="M15.3114 26.5824C12.179 26.3896 9.65241 23.8583 9.44616 20.7358V20.6587C9.3817 19.5151 7.91217 19.1168 7.26764 20.0677C6.54577 21.1342 6.15905 22.4448 6.2235 23.8326C6.37819 27.0321 8.9821 29.6406 12.2048 29.7947C13.6098 29.859 14.9118 29.4607 15.9817 28.7539C16.9356 28.1115 16.536 26.6466 15.3887 26.5824H15.3114Z" fill="#1C2617"/>
<path d="M12.5013 26.6209C14.2028 26.6209 15.5821 25.246 15.5821 23.5499C15.5821 21.8538 14.2028 20.4789 12.5013 20.4789C10.7998 20.4789 9.42041 21.8538 9.42041 23.5499C9.42041 25.246 10.7998 26.6209 12.5013 26.6209Z" fill="#747E6C"/>
<path d="M12.7461 20.4788C12.5786 20.466 12.411 20.466 12.2434 20.4788C11.9211 20.5045 11.934 20.9671 12.2563 20.9928H12.295C13.7387 21.1341 14.9118 22.3034 15.0536 23.7426V23.7811C15.0793 24.1024 15.5434 24.1024 15.5692 23.794C15.5821 23.6269 15.5821 23.4599 15.5692 23.2929C15.4532 21.8023 14.2415 20.5945 12.7461 20.4788Z" fill="#C4C1AB"/>
<path d="M13.5583 25.1818C12.1404 25.0276 11.006 23.8968 10.8513 22.4834V22.4448C10.7869 21.8409 9.97475 21.6867 9.70405 22.2264C9.48491 22.689 9.38178 23.2158 9.42045 23.7683C9.52358 25.2717 10.7611 26.5053 12.2693 26.6081C12.8236 26.6466 13.3521 26.5438 13.8033 26.3254C14.3576 26.0684 14.19 25.246 13.5841 25.1818H13.5583Z" fill="#485143"/>
<path d="M3.33594 13.7457H4.32852V19.271H3.33594V13.7457Z" fill="#E0E0E0"/>
<path d="M54.2926 29.8076C57.7597 29.8076 60.5704 27.0059 60.5704 23.5499C60.5704 20.0938 57.7597 17.2922 54.2926 17.2922C50.8255 17.2922 48.0149 20.0938 48.0149 23.5499C48.0149 27.0059 50.8255 29.8076 54.2926 29.8076Z" fill="#323D2C"/>
<path d="M57.1028 26.5824C53.9704 26.3896 51.4438 23.8583 51.2375 20.7358V20.6587C51.1731 19.5151 49.7036 19.1168 49.059 20.0677C48.3371 21.1342 47.9504 22.4448 48.0149 23.8326C48.1696 27.0321 50.7735 29.6406 53.9961 29.7947C55.4012 29.859 56.7032 29.4607 57.7731 28.7539C58.727 28.1115 58.3274 26.6466 57.1801 26.5824H57.1028Z" fill="#1C2617"/>
<path d="M54.2669 26.6209C55.9684 26.6209 57.3478 25.246 57.3478 23.5499C57.3478 21.8538 55.9684 20.4789 54.2669 20.4789C52.5654 20.4789 51.186 21.8538 51.186 23.5499C51.186 25.246 52.5654 26.6209 54.2669 26.6209Z" fill="#747E6C"/>
<path d="M54.5503 17.2922C54.0347 17.2665 53.5191 17.305 53.0292 17.4078C52.4749 17.5106 52.5781 18.3202 53.1324 18.3202H53.2226C56.6644 18.3202 59.5003 21.147 59.5003 24.5779V24.6678C59.4874 25.2203 60.2995 25.3231 60.4156 24.7706C60.5058 24.2823 60.5574 23.7812 60.5316 23.2544C60.3898 20.042 57.773 17.4335 54.5503 17.2922Z" fill="#485143"/>
<path d="M54.5118 20.4788C54.3442 20.466 54.1766 20.466 54.009 20.4788C53.6868 20.5045 53.6997 20.9671 54.0219 20.9928H54.0606C55.5043 21.1341 56.6774 22.3034 56.8192 23.7426V23.7811C56.845 24.1024 57.309 24.1024 57.3348 23.794C57.3477 23.6269 57.3477 23.4599 57.3348 23.2929C57.2188 21.8023 56.0071 20.5945 54.5118 20.4788Z" fill="#C4C1AB"/>
<path d="M55.324 25.1818C53.906 25.0276 52.7716 23.8968 52.6169 22.4834V22.4448C52.5525 21.8409 51.7404 21.6867 51.4697 22.2264C51.2505 22.689 51.1474 23.2158 51.1861 23.7683C51.2892 25.2717 52.5267 26.5053 54.0349 26.6081C54.5892 26.6466 55.1177 26.5438 55.5689 26.3254C56.1232 26.0684 55.9556 25.246 55.3497 25.1818H55.324Z" fill="#485143"/>
<path d="M33.5 15.1591H43.168L47.1641 15.4161H58.4434C56.5871 14.7736 54.602 14.3881 52.6039 14.3881H47.1641L43.168 14.1312H33.5L11.8953 10.816L1.14453 12.011V13.116L11.9082 12.2423L33.5 15.1591Z" fill="#E0E0E0"/>
<mask id="mask0_883_1574" style="mask-type:luminance" maskUnits="userSpaceOnUse" x="11" y="8" width="33" height="7">
<path d="M43.168 14.1312H33.5L11.9082 10.816L18.1602 8.99139H29.7359C33.7707 8.99139 37.7152 10.2506 41.0023 12.5893L43.168 14.1312Z" fill="white"/>
</mask>
<g mask="url(#mask0_883_1574)">
<path d="M27.3899 15.3262H25.0825L17.606 7.92487H19.9134L27.3899 15.3262ZM34.3638 15.3262H29.5427L22.0661 7.92487H26.8743L34.3638 15.3262Z" fill="#747E6C"/>
</g>
<path d="M25.6625 12.9362L23.0328 12.525V8.99139H25.6625V12.9362Z" fill="#323D2C"/>
<g clip-path="url(#clip0_883_1574)">
<path d="M52.1207 6.99998C52.1207 4.02907 54.5291 1.62067 57.5 1.62067L57.9138 7.20687L57.5 12.3793C54.5291 12.3793 52.1207 9.97089 52.1207 6.99998Z" fill="#F0F0F0"/>
<path d="M62.8793 6.99998C62.8793 4.02907 60.4709 1.62067 57.5 1.62067V12.3793C60.4709 12.3793 62.8793 9.97089 62.8793 6.99998Z" fill="#E6E6E6"/>
<path d="M57.5 4.31036C57.1572 4.31036 56.8793 4.58827 56.8793 4.93105V6.37933H56.2586C55.9158 6.37933 55.6379 6.65723 55.6379 7.00002C55.6379 7.34281 55.9158 7.62071 56.2586 7.62071H57.5L57.7069 6.17243L57.5 4.31036Z" fill="#607881"/>
<path d="M58.1207 7.00002V4.93105C58.1207 4.58827 57.8428 4.31036 57.5 4.31036V7.62071C57.8428 7.62071 58.1207 7.34281 58.1207 7.00002Z" fill="#495959"/>
<path d="M56.8793 12.3793V11.1379C56.8793 10.7951 57.1572 10.5172 57.5 10.5172L57.9138 12.3793H56.8793Z" fill="#607881"/>
<path d="M58.1207 12.3793V11.1379C58.1207 10.7951 57.8428 10.5172 57.5 10.5172V12.3793H58.1207Z" fill="#495959"/>
<path d="M53.3621 6.37933H52.1207V7.62071H53.3621C53.7049 7.62071 53.9828 7.34281 53.9828 7.00002C53.9828 6.65724 53.7049 6.37933 53.3621 6.37933Z" fill="#607881"/>
<path d="M61.6379 6.37933C61.2951 6.37933 61.0172 6.65724 61.0172 7.00002C61.0172 7.34281 61.2951 7.62071 61.6379 7.62071H62.8793V6.37933H61.6379Z" fill="#495959"/>
<path d="M57.5 3.48274C57.1572 3.48274 56.8793 3.20483 56.8793 2.86205V1.62067H57.5L57.9138 2.61377L57.5 3.48274Z" fill="#607881"/>
<path d="M57.5 3.48274C57.8428 3.48274 58.1207 3.20483 58.1207 2.86205V1.62067H57.5V3.48274Z" fill="#495959"/>
<path d="M52.7414 7C52.7414 9.6239 54.8761 11.7586 57.5 11.7586L57.9138 12.3793L57.5 13C54.1916 13 51.5 10.3084 51.5 7C51.5 3.6916 54.1916 1 57.5 1L57.9138 1.62069L57.5 2.24138C54.8761 2.24138 52.7414 4.3761 52.7414 7Z" fill="#5956E0"/>
<path d="M62.2586 7C62.2586 9.6239 60.1239 11.7586 57.5 11.7586V13C60.8084 13 63.5 10.3084 63.5 7C63.5 3.6916 60.8084 1 57.5 1V2.24138C60.1239 2.24138 62.2586 4.3761 62.2586 7Z" fill="#5956E0"/>
</g>
<defs>
<clipPath id="clip0_883_1574">
<rect width="12" height="12" fill="white" transform="translate(51.5 1)"/>
</clipPath>
</defs>
</svg>
