<svg width="67" height="30" viewBox="0 0 67 30" fill="none" xmlns="http://www.w3.org/2000/svg">
<path d="M25.869 25.2406C23.3483 25.2406 20.6693 26.0746 20.6693 27.6202C20.6693 29.1658 23.3483 29.9999 25.869 29.9999C28.3896 29.9999 31.0686 29.1658 31.0686 27.6202C31.0686 26.0746 28.3896 25.2406 25.869 25.2406Z" fill="#E6E6E6"/>
<path d="M25.8691 9.0177C21.8133 9.0177 18.5135 12.3174 18.5135 16.3733C18.5135 18.8915 19.7114 21.599 22.074 24.4206C23.8134 26.498 25.5277 27.833 25.5999 27.8889C25.6769 27.9486 25.7716 27.9809 25.8691 27.9809C25.9666 27.9809 26.0613 27.9486 26.1384 27.8889C26.2105 27.833 27.9249 26.498 29.6642 24.4206C32.0268 21.599 33.2247 18.8914 33.2247 16.3733C33.2247 12.3174 29.925 9.0177 25.8691 9.0177ZM28.6274 16.3733C28.6274 17.8966 27.3925 19.1315 25.8691 19.1315C24.3458 19.1315 23.1109 17.8966 23.1109 16.3733C23.1109 14.8499 24.3458 13.615 25.8691 13.615C27.3925 13.615 28.6274 14.8499 28.6274 16.3733Z" fill="#5956E0"/>
<path d="M45.4838 12.9377C44.7414 12.6351 43.7637 12.4685 42.731 12.4685C41.6984 12.4685 40.7207 12.6351 39.9782 12.9377C39.1106 13.2912 38.6328 13.8103 38.6328 14.3992C38.6328 14.9882 39.1106 15.5073 39.9782 15.8608C40.7206 16.1633 41.6983 16.33 42.731 16.33C43.7637 16.33 44.7414 16.1633 45.4838 15.8608C46.3514 15.5073 46.8291 14.9882 46.8291 14.3992C46.8291 13.8103 46.3514 13.2913 45.4838 12.9377Z" fill="#E6E6E6"/>
<path d="M25.869 28.9011C23.6655 28.9011 21.3411 28.2638 20.791 27.0708C20.7119 27.2425 20.6693 27.4257 20.6693 27.6203C20.6693 29.1659 23.3483 29.9999 25.869 29.9999C28.3896 29.9999 31.0686 29.1658 31.0686 27.6203C31.0686 27.4258 31.0261 27.2426 30.9469 27.0708C30.3969 28.2637 28.0725 28.9011 25.869 28.9011ZM45.4838 14.7619C44.7414 15.0644 43.7638 15.2311 42.731 15.2311C41.6983 15.2311 40.7207 15.0644 39.9782 14.7619C39.3931 14.5235 38.9861 14.2095 38.7826 13.8498C38.6844 14.0234 38.6329 14.2074 38.6329 14.3992C38.6329 14.9882 39.1106 15.5073 39.9783 15.8608C40.7207 16.1633 41.6983 16.3299 42.7311 16.3299C43.7638 16.3299 44.7414 16.1633 45.4839 15.8608C46.3514 15.5073 46.8292 14.9882 46.8292 14.3992C46.8292 14.2076 46.7777 14.0234 46.6795 13.8498C46.476 14.2095 46.0689 14.5235 45.4838 14.7619Z" fill="#CCCCCC"/>
<path d="M42.7312 0C39.5578 0 36.9761 2.58176 36.9761 5.75508C36.9761 7.71504 37.9048 9.81791 39.7363 12.0054C41.0802 13.6104 42.4062 14.643 42.462 14.6862C42.539 14.7459 42.6337 14.7783 42.7312 14.7782C42.8287 14.7783 42.9234 14.7459 43.0004 14.6862C43.0562 14.643 44.3823 13.6104 45.7261 12.0054C47.5576 9.81797 48.4863 7.7151 48.4863 5.75508C48.4862 2.58176 45.9045 0 42.7312 0ZM44.8511 5.75508C44.8511 6.9259 43.902 7.87506 42.7312 7.87506C41.5603 7.87506 40.6112 6.9259 40.6112 5.75508C40.6112 4.58426 41.5603 3.63516 42.7312 3.63516C43.902 3.63516 44.8511 4.58426 44.8511 5.75508Z" fill="#333333"/>
<path d="M25.0406 9.06463C25.3126 9.03399 25.589 9.0177 25.8691 9.0177C29.925 9.0177 33.2247 12.3174 33.2247 16.3732C33.2247 18.8913 32.0268 21.5989 29.6642 24.4205C27.9249 26.498 26.2105 27.833 26.1383 27.8888C26.0591 27.9502 25.9641 27.9808 25.8691 27.9808C25.7741 27.9808 25.6791 27.9502 25.5999 27.8888C25.5758 27.8702 25.369 27.7091 25.0405 27.4267C25.6985 26.8609 26.8469 25.8063 28.0071 24.4206C30.3697 21.599 31.5676 18.8915 31.5676 16.3733C31.5676 12.5975 28.7078 9.4776 25.0406 9.06463Z" fill="black" fill-opacity="0.13"/>
<path d="M42.7312 0C42.4539 2.38847e-05 42.177 0.0200367 41.9026 0.0598828C44.6847 0.462773 46.8291 2.86307 46.8291 5.75508C46.8291 7.71504 45.9004 9.81791 44.069 12.0054C43.243 12.9919 42.4244 13.7616 41.9026 14.2188C42.2297 14.5054 42.4404 14.6696 42.4619 14.6862C42.539 14.7459 42.6337 14.7782 42.7312 14.7782C42.8286 14.7782 42.9233 14.7459 43.0004 14.6862C43.0562 14.643 44.3823 13.6104 45.7261 12.0054C47.5576 9.81791 48.4862 7.71504 48.4862 5.75502C48.4862 2.58176 45.9045 0 42.7312 0Z" fill="#191919"/>
<path d="M32.6929 28.0607C32.5766 28.0607 32.465 28.0146 32.3826 27.9326C32.3002 27.8505 32.2536 27.7391 32.2531 27.6228C32.2528 27.565 32.2639 27.5078 32.2858 27.4543C32.3076 27.4008 32.3398 27.3522 32.3805 27.3111C32.4211 27.2701 32.4695 27.2375 32.5228 27.2151C32.5761 27.1928 32.6332 27.1811 32.691 27.1809L33.272 27.1783H33.2741C33.3904 27.1783 33.502 27.2243 33.5844 27.3064C33.6668 27.3885 33.7134 27.4999 33.7139 27.6162C33.7142 27.674 33.7031 27.7312 33.6812 27.7847C33.6593 27.8382 33.6272 27.8868 33.5865 27.9279C33.5458 27.9689 33.4975 28.0015 33.4442 28.0239C33.3909 28.0462 33.3338 28.0578 33.276 28.0581L32.695 28.0607H32.6929ZM35.017 28.0502C34.9007 28.0502 34.7891 28.0041 34.7067 27.922C34.6243 27.84 34.5777 27.7286 34.5772 27.6123C34.5769 27.5545 34.588 27.4972 34.6099 27.4437C34.6317 27.3903 34.6639 27.3416 34.7046 27.3006C34.7453 27.2595 34.7936 27.2269 34.8469 27.2046C34.9002 27.1822 34.9573 27.1706 35.0151 27.1703L35.5961 27.1677H35.5982C35.7145 27.1677 35.8261 27.2138 35.9085 27.2959C35.9909 27.3779 36.0375 27.4893 36.038 27.6056C36.0383 27.6634 36.0272 27.7207 36.0053 27.7741C35.9835 27.8276 35.9513 27.8763 35.9106 27.9173C35.8699 27.9583 35.8216 27.991 35.7683 28.0133C35.715 28.0357 35.6579 28.0473 35.6001 28.0476L35.0191 28.0502H35.017ZM37.3412 28.0396C37.2249 28.0396 37.1133 27.9935 37.0309 27.9114C36.9485 27.8293 36.9019 27.718 36.9014 27.6017C36.9011 27.5439 36.9122 27.4866 36.9341 27.4331C36.9559 27.3797 36.9881 27.331 37.0288 27.29C37.0695 27.249 37.1178 27.2163 37.1711 27.194C37.2244 27.1716 37.2815 27.16 37.3393 27.1597L37.9202 27.1571H37.9223C38.0386 27.1571 38.1502 27.2032 38.2326 27.2853C38.3151 27.3673 38.3616 27.4787 38.3622 27.595C38.3624 27.6528 38.3513 27.7101 38.3294 27.7635C38.3076 27.817 38.2754 27.8657 38.2347 27.9067C38.1941 27.9477 38.1457 27.9803 38.0924 28.0027C38.0392 28.025 37.982 28.0367 37.9242 28.0369L37.3433 28.0396H37.3412ZM39.6654 28.029C39.5491 28.029 39.4375 27.9829 39.3551 27.9009C39.2726 27.8188 39.2261 27.7074 39.2255 27.5911C39.2253 27.5333 39.2364 27.4761 39.2583 27.4226C39.2801 27.3691 39.3123 27.3205 39.353 27.2794C39.3936 27.2384 39.442 27.2058 39.4953 27.1834C39.5485 27.1611 39.6057 27.1495 39.6635 27.1492L40.2445 27.1466H40.2465C40.3632 27.1463 40.4752 27.1924 40.5579 27.2747C40.6406 27.357 40.6872 27.4688 40.6874 27.5855C40.6877 27.7022 40.6416 27.8142 40.5593 27.8969C40.4769 27.9795 40.3651 28.0261 40.2485 28.0264L39.6675 28.029H39.6654ZM41.9895 28.0185C41.8732 28.0185 41.7616 27.9725 41.6792 27.8904C41.5968 27.8083 41.5502 27.6969 41.5497 27.5806C41.5494 27.5228 41.5605 27.4656 41.5824 27.4121C41.6042 27.3586 41.6364 27.31 41.6771 27.2689C41.7177 27.2279 41.7661 27.1953 41.8194 27.1729C41.8727 27.1506 41.9298 27.139 41.9876 27.1387L42.5686 27.1361H42.5707C42.687 27.1361 42.7986 27.1822 42.881 27.2642C42.9634 27.3463 43.01 27.4577 43.0105 27.574C43.0108 27.6318 42.9997 27.689 42.9778 27.7425C42.9559 27.796 42.9238 27.8446 42.8831 27.8857C42.8424 27.9267 42.7941 27.9593 42.7408 27.9817C42.6875 28.004 42.6304 28.0157 42.5726 28.0159L41.9916 28.0185H41.9895ZM44.3137 28.008C44.1974 28.008 44.0858 27.9619 44.0034 27.8799C43.921 27.7978 43.8744 27.6865 43.8738 27.5702C43.8736 27.5124 43.8847 27.4552 43.9065 27.4017C43.9283 27.3482 43.9605 27.2995 44.0012 27.2585C44.0418 27.2174 44.0902 27.1848 44.1434 27.1624C44.1967 27.1401 44.2539 27.1284 44.3117 27.1282L44.394 27.1277C44.5407 27.1271 44.6873 27.1168 44.8327 27.0968C44.9474 27.0827 45.063 27.1143 45.1546 27.1847C45.2462 27.2552 45.3064 27.3588 45.3222 27.4732C45.338 27.5877 45.3081 27.7038 45.2391 27.7964C45.17 27.889 45.0673 27.9508 44.9531 27.9683C44.7706 27.9935 44.5838 28.0068 44.398 28.0076L44.3159 28.008H44.3137ZM46.5022 27.3452C46.4085 27.3453 46.3172 27.3154 46.2416 27.2599C46.166 27.2044 46.1102 27.1262 46.0822 27.0367C46.0541 26.9472 46.0554 26.8512 46.0858 26.7625C46.1163 26.6738 46.1742 26.5971 46.2512 26.5437C46.3918 26.4462 46.5245 26.338 46.6484 26.2201C46.7328 26.1396 46.8458 26.0959 46.9625 26.0988C47.0791 26.1016 47.1899 26.1506 47.2703 26.2351C47.3508 26.3195 47.3945 26.4325 47.3917 26.5492C47.3888 26.6658 47.3398 26.7766 47.2553 26.857C47.0986 27.0064 46.9305 27.1433 46.7526 27.2667C46.6791 27.3179 46.5918 27.3453 46.5022 27.3452ZM47.8935 25.5312C47.823 25.5312 47.7536 25.5142 47.691 25.4818C47.6284 25.4493 47.5745 25.4023 47.5339 25.3447C47.4933 25.2871 47.4671 25.2206 47.4576 25.1508C47.448 25.0809 47.4554 25.0098 47.4791 24.9434C47.5364 24.7826 47.581 24.6174 47.6126 24.4496C47.6342 24.335 47.7005 24.2336 47.7968 24.1678C47.8932 24.102 48.0117 24.0772 48.1263 24.0987C48.241 24.1203 48.3424 24.1866 48.4082 24.2829C48.474 24.3793 48.4988 24.4978 48.4772 24.6124C48.4371 24.8254 48.3804 25.0348 48.3077 25.2389C48.2772 25.3244 48.2211 25.3984 48.1469 25.4507C48.0728 25.5031 47.9842 25.5312 47.8935 25.5312ZM47.9647 23.246C47.8692 23.2459 47.7763 23.2148 47.7001 23.1573C47.6239 23.0998 47.5684 23.0191 47.5421 22.9273C47.4949 22.7632 47.435 22.603 47.3627 22.4482C47.3163 22.3429 47.3129 22.2236 47.3534 22.1158C47.3939 22.0081 47.475 21.9205 47.5793 21.8718C47.6836 21.8232 47.8028 21.8173 47.9114 21.8555C48.0199 21.8937 48.1092 21.9729 48.1601 22.0761C48.2518 22.2727 48.3279 22.4761 48.3878 22.6846C48.4066 22.7501 48.4099 22.8191 48.3975 22.8861C48.3851 22.9532 48.3573 23.0164 48.3163 23.0708C48.2752 23.1253 48.2221 23.1695 48.1611 23.1999C48.1001 23.2303 48.0329 23.2461 47.9647 23.246ZM46.6888 21.3482C46.5899 21.3483 46.494 21.315 46.4165 21.2536C46.2823 21.1477 46.1402 21.0524 45.9913 20.9685C45.941 20.9401 45.8967 20.9022 45.861 20.8567C45.8254 20.8112 45.799 20.7592 45.7835 20.7036C45.7679 20.6479 45.7635 20.5898 45.7704 20.5324C45.7774 20.4751 45.7955 20.4196 45.8239 20.3693C45.8522 20.319 45.8902 20.2747 45.9357 20.2391C45.9811 20.2034 46.0332 20.177 46.0888 20.1615C46.1445 20.146 46.2026 20.1415 46.26 20.1485C46.3173 20.1554 46.3727 20.1735 46.4231 20.2019C46.6116 20.3082 46.7917 20.4289 46.9617 20.563C47.0532 20.6353 47.1123 20.741 47.126 20.8568C47.1396 20.9727 47.1066 21.0893 47.0343 21.1808C46.9932 21.2331 46.9407 21.2753 46.8808 21.3043C46.821 21.3333 46.7553 21.3483 46.6888 21.3482ZM44.5473 20.5509C44.5408 20.5509 44.5341 20.5508 44.5275 20.5504C44.4781 20.5482 44.4286 20.5471 44.3791 20.5471H43.966C43.9082 20.5471 43.851 20.5358 43.7976 20.5137C43.7443 20.4916 43.6958 20.4592 43.6549 20.4183C43.6141 20.3775 43.5817 20.329 43.5596 20.2756C43.5374 20.2222 43.5261 20.165 43.5261 20.1072C43.5261 20.0494 43.5374 19.9922 43.5596 19.9389C43.5817 19.8855 43.6141 19.837 43.6549 19.7961C43.6958 19.7553 43.7443 19.7229 43.7976 19.7008C43.851 19.6787 43.9082 19.6673 43.966 19.6673H44.3791C44.4412 19.6673 44.5042 19.6686 44.5664 19.6715C44.6241 19.674 44.6808 19.6879 44.7331 19.7123C44.7855 19.7368 44.8325 19.7713 44.8715 19.8139C44.9105 19.8565 44.9407 19.9064 44.9604 19.9607C44.9801 20.015 44.9889 20.0727 44.9864 20.1304C44.9814 20.2435 44.933 20.3504 44.8512 20.4287C44.7694 20.5071 44.6606 20.5508 44.5473 20.5509ZM42.2229 20.5472H41.6419C41.5252 20.5472 41.4133 20.5009 41.3308 20.4183C41.2483 20.3358 41.202 20.224 41.202 20.1073C41.202 19.9906 41.2483 19.8787 41.3308 19.7962C41.4133 19.7137 41.5252 19.6674 41.6419 19.6674H42.2229C42.3396 19.6674 42.4515 19.7137 42.534 19.7962C42.6165 19.8787 42.6628 19.9906 42.6628 20.1073C42.6628 20.224 42.6165 20.3358 42.534 20.4183C42.4515 20.5009 42.3396 20.5472 42.2229 20.5472ZM39.8987 20.5472H39.3177C39.201 20.5472 39.0891 20.5009 39.0066 20.4183C38.9241 20.3358 38.8778 20.224 38.8778 20.1073C38.8778 19.9906 38.9241 19.8787 39.0066 19.7962C39.0891 19.7137 39.201 19.6674 39.3177 19.6674H39.8987C40.0154 19.6674 40.1273 19.7137 40.2098 19.7962C40.2923 19.8787 40.3386 19.9906 40.3386 20.1073C40.3386 20.224 40.2923 20.3358 40.2098 20.4183C40.1273 20.5009 40.0154 20.5472 39.8987 20.5472ZM37.5745 20.5472H36.9935C36.8768 20.5472 36.7649 20.5009 36.6824 20.4183C36.5999 20.3358 36.5535 20.224 36.5535 20.1073C36.5535 19.9906 36.5999 19.8787 36.6824 19.7962C36.7649 19.7137 36.8768 19.6674 36.9935 19.6674H37.5745C37.6912 19.6674 37.8031 19.7137 37.8856 19.7962C37.9681 19.8787 38.0144 19.9906 38.0144 20.1073C38.0144 20.224 37.9681 20.3358 37.8856 20.4183C37.8031 20.5009 37.6912 20.5472 37.5745 20.5472ZM35.3333 20.1096C35.2504 20.1096 35.1692 20.0861 35.0991 20.0418C34.91 19.9224 34.7335 19.7841 34.5723 19.6292C34.5306 19.5891 34.4973 19.5413 34.4742 19.4883C34.451 19.4354 34.4385 19.3784 34.4374 19.3207C34.4363 19.2629 34.4466 19.2055 34.4676 19.1517C34.4887 19.0979 34.5201 19.0488 34.5602 19.0072C34.6002 18.9655 34.6481 18.9322 34.701 18.9091C34.7539 18.8859 34.8109 18.8735 34.8687 18.8723C34.9264 18.8712 34.9838 18.8815 35.0376 18.9025C35.0914 18.9236 35.1405 18.9551 35.1822 18.9951C35.3004 19.1088 35.4298 19.2101 35.5685 19.2976C35.6492 19.3485 35.7112 19.4243 35.7451 19.5135C35.779 19.6026 35.783 19.7004 35.7565 19.7921C35.7299 19.8838 35.6743 19.9643 35.598 20.0216C35.5216 20.0789 35.4288 20.1098 35.3333 20.1096ZM34.0548 18.246C33.9528 18.2459 33.854 18.2103 33.7753 18.1454C33.6966 18.0805 33.6429 17.9903 33.6234 17.8902C33.5829 17.682 33.5626 17.4703 33.5626 17.2582L33.5628 17.2235C33.566 17.1081 33.6145 16.9986 33.6977 16.9186C33.7809 16.8386 33.8923 16.7945 34.0077 16.7958C34.1232 16.7972 34.2334 16.8438 34.3148 16.9258C34.3961 17.0077 34.442 17.1183 34.4426 17.2337L34.4425 17.2582C34.4425 17.4143 34.4575 17.5703 34.487 17.7219C34.4994 17.7856 34.4976 17.8513 34.4816 17.9143C34.4657 17.9772 34.436 18.0359 34.3946 18.086C34.3533 18.1361 34.3014 18.1764 34.2426 18.2041C34.1839 18.2318 34.1197 18.2461 34.0548 18.246ZM34.5355 16.0381C34.4546 16.038 34.3753 16.0157 34.3063 15.9735C34.2373 15.9312 34.1813 15.8708 34.1444 15.7988C34.1075 15.7268 34.0911 15.6461 34.0972 15.5654C34.1032 15.4847 34.1313 15.4073 34.1785 15.3416C34.309 15.16 34.4575 14.9921 34.6219 14.8405C34.7076 14.7614 34.8213 14.7196 34.9379 14.7243C35.0545 14.729 35.1644 14.7798 35.2435 14.8655C35.3226 14.9513 35.3644 15.065 35.3597 15.1815C35.355 15.2981 35.3042 15.4081 35.2184 15.4872C35.0979 15.5984 34.9889 15.7216 34.8932 15.8548C34.8524 15.9116 34.7987 15.9579 34.7365 15.9898C34.6743 16.0216 34.6054 16.0382 34.5355 16.0381ZM36.4722 14.874C36.3607 14.8736 36.2536 14.8309 36.1724 14.7546C36.0912 14.6783 36.0419 14.574 36.0346 14.4627C36.0273 14.3515 36.0625 14.2417 36.1331 14.1554C36.2036 14.0691 36.3042 14.0128 36.4147 13.9979C36.5596 13.9787 36.7055 13.9691 36.8517 13.9691H37.0525C37.2955 13.9691 37.4925 14.166 37.4925 14.409C37.4925 14.652 37.2955 14.8489 37.0525 14.8489H36.8517C36.7441 14.8489 36.6361 14.856 36.5307 14.87C36.5113 14.8727 36.4917 14.874 36.4722 14.874Z" fill="#B3B3B3"/>
</svg>
