<svg width="66" height="30" viewBox="0 0 66 30" fill="none" xmlns="http://www.w3.org/2000/svg">
<path d="M52.1039 10.6957H46.6641L40.9535 6.84087C37.7438 4.65646 33.9539 3.5 30.0738 3.5H16.5L0.644531 8.31856V10.0532H2.0625V15.5785H0.644531V19.9474L2.90039 22.9028H63.8086V19.8446L65.3555 16.3367L62.3777 14.1137C59.4129 11.8907 55.8164 10.6957 52.1039 10.6957Z" fill="#F2F2F2"/>
<path d="M12.7617 5.29895H10.5832L0.644531 8.31858L3.32578 8.38283L12.7617 5.29895Z" fill="#313131"/>
<path d="M38.2335 5.29895H36.7898L44.7046 10.6957H46.664L40.9535 6.82804C40.0898 6.24981 39.1746 5.68444 38.2335 5.29895Z" fill="#313131"/>
<path d="M63.8086 22.9027H2.90039L0.644531 19.9473H63.8086V22.9027ZM4.85977 15.5785H2.0625V10.0532H4.85977L6.21328 13.2014L4.85977 15.5785Z" fill="#D2D2D2"/>
<path d="M42.668 10.4388H33L11.4082 7.12358L17.6602 5.29895H29.2359C33.2707 5.29895 37.2152 6.5582 40.5023 8.89681L42.668 10.4388Z" fill="#262626"/>
<path d="M46.0196 19.8317L25.0208 18.5853L21.0247 13.574L25.2012 11.7237L45.6329 14.8076C45.6329 15.4886 45.0399 16.0283 44.3567 15.9512L26.7352 13.9595L25.1754 14.7305L27.354 16.7864L45.0399 18.7395C45.5942 18.7909 46.0196 19.2664 46.0196 19.8317Z" fill="#D2D2D2"/>
<path d="M61.3594 15.707H65.3555V16.992H61.3594V15.707Z" fill="#FFE146"/>
<path d="M12.0011 26.1152C15.4682 26.1152 18.2789 23.3135 18.2789 19.8574C18.2789 16.4014 15.4682 13.5997 12.0011 13.5997C8.53403 13.5997 5.72339 16.4014 5.72339 19.8574C5.72339 23.3135 8.53403 26.1152 12.0011 26.1152Z" fill="#060606"/>
<path d="M12.2848 13.5998C11.7692 13.5741 11.2536 13.6126 10.7637 13.7154C10.2094 13.8182 10.3126 14.6277 10.8669 14.6277H10.9571C14.3989 14.6277 17.2348 17.4546 17.2348 20.8854V20.9754C17.2219 21.5279 18.034 21.6307 18.1501 21.0782C18.2403 20.5899 18.2919 20.0888 18.2661 19.5619C18.1243 16.3495 15.5075 13.7411 12.2848 13.5998Z" fill="#181818"/>
<path d="M14.8114 22.8899C11.679 22.6972 9.15241 20.1658 8.94616 17.0434V16.9663C8.8817 15.8227 7.41217 15.4244 6.76764 16.3752C6.04577 17.4417 5.65905 18.7524 5.7235 20.1401C5.87819 23.3397 8.4821 25.9481 11.7048 26.1023C13.1098 26.1665 14.4118 25.7682 15.4817 25.0615C16.4356 24.419 16.036 22.9542 14.8887 22.8899H14.8114Z" fill="#040404"/>
<path d="M12.0013 22.9285C13.7028 22.9285 15.0821 21.5536 15.0821 19.8575C15.0821 18.1614 13.7028 16.7864 12.0013 16.7864C10.2998 16.7864 8.92041 18.1614 8.92041 19.8575C8.92041 21.5536 10.2998 22.9285 12.0013 22.9285Z" fill="#E9E9E9"/>
<path d="M12.2461 16.7864C12.0786 16.7735 11.911 16.7735 11.7434 16.7864C11.4211 16.8121 11.434 17.2747 11.7563 17.3004H11.795C13.2387 17.4417 14.4118 18.611 14.5536 20.0501V20.0887C14.5793 20.4099 15.0434 20.4099 15.0692 20.1015C15.0821 19.9345 15.0821 19.7675 15.0692 19.6004C14.9532 18.1099 13.7415 16.902 12.2461 16.7864Z" fill="#DBDBDB"/>
<path d="M13.0583 21.4893C11.6404 21.3351 10.506 20.2044 10.3513 18.7909V18.7524C10.2869 18.1485 9.47475 17.9943 9.20405 18.5339C8.98491 18.9965 8.88178 19.5234 8.92045 20.0759C9.02358 21.5793 10.2611 22.8128 11.7693 22.9156C12.3236 22.9542 12.8521 22.8514 13.3033 22.6329C13.8576 22.376 13.69 21.5536 13.0841 21.4893H13.0583Z" fill="#C2C2C2"/>
<path d="M2.83594 10.0532H3.82852V15.5785H2.83594V10.0532Z" fill="#E82E2E"/>
<path d="M53.7926 26.1152C57.2597 26.1152 60.0704 23.3135 60.0704 19.8574C60.0704 16.4014 57.2597 13.5997 53.7926 13.5997C50.3255 13.5997 47.5149 16.4014 47.5149 19.8574C47.5149 23.3135 50.3255 26.1152 53.7926 26.1152Z" fill="#060606"/>
<path d="M56.6028 22.8899C53.4704 22.6972 50.9438 20.1658 50.7375 17.0434V16.9663C50.6731 15.8227 49.2036 15.4244 48.559 16.3752C47.8371 17.4417 47.4504 18.7524 47.5149 20.1401C47.6696 23.3397 50.2735 25.9481 53.4961 26.1023C54.9012 26.1665 56.2032 25.7682 57.2731 25.0615C58.227 24.419 57.8274 22.9542 56.6801 22.8899H56.6028Z" fill="#040404"/>
<path d="M53.7669 22.9285C55.4684 22.9285 56.8478 21.5536 56.8478 19.8575C56.8478 18.1614 55.4684 16.7864 53.7669 16.7864C52.0654 16.7864 50.686 18.1614 50.686 19.8575C50.686 21.5536 52.0654 22.9285 53.7669 22.9285Z" fill="#E9E9E9"/>
<path d="M54.0503 13.5998C53.5347 13.5741 53.0191 13.6126 52.5292 13.7154C51.9749 13.8182 52.0781 14.6277 52.6324 14.6277H52.7226C56.1644 14.6277 59.0003 17.4546 59.0003 20.8854V20.9754C58.9874 21.5279 59.7995 21.6307 59.9156 21.0782C60.0058 20.5899 60.0574 20.0888 60.0316 19.5619C59.8898 16.3495 57.273 13.7411 54.0503 13.5998Z" fill="#181818"/>
<path d="M54.0118 16.7864C53.8442 16.7735 53.6766 16.7735 53.509 16.7864C53.1868 16.8121 53.1997 17.2747 53.5219 17.3004H53.5606C55.0043 17.4417 56.1774 18.611 56.3192 20.0501V20.0887C56.345 20.4099 56.809 20.4099 56.8348 20.1015C56.8477 19.9345 56.8477 19.7675 56.8348 19.6004C56.7188 18.1099 55.5071 16.902 54.0118 16.7864Z" fill="#DBDBDB"/>
<path d="M54.824 21.4893C53.406 21.3351 52.2716 20.2044 52.1169 18.7909V18.7524C52.0525 18.1485 51.2404 17.9943 50.9697 18.5339C50.7505 18.9965 50.6474 19.5234 50.6861 20.0759C50.7892 21.5793 52.0267 22.8128 53.5349 22.9156C54.0892 22.9542 54.6177 22.8514 55.0689 22.6329C55.6232 22.376 55.4556 21.5536 54.8497 21.4893H54.824Z" fill="#C2C2C2"/>
<path d="M33 11.4667H42.668L46.6641 11.7237H57.9434C56.0871 11.0812 54.102 10.6957 52.1039 10.6957H46.6641L42.668 10.4387H33L11.3953 7.12354L0.644531 8.31854V9.4236L11.4082 8.54983L33 11.4667Z" fill="#E0E0E0"/>
<mask id="mask0_883_1744" style="mask-type:luminance" maskUnits="userSpaceOnUse" x="11" y="5" width="32" height="6">
<path d="M42.668 10.4388H33L11.4082 7.12358L17.6602 5.29895H29.2359C33.2707 5.29895 37.2152 6.5582 40.5023 8.89681L42.668 10.4388Z" fill="white"/>
</mask>
<g mask="url(#mask0_883_1744)">
<path d="M26.8899 11.6337H24.5825L17.106 4.23242H19.4134L26.8899 11.6337ZM33.8638 11.6337H29.0427L21.5661 4.23242H26.3743L33.8638 11.6337Z" fill="#454545"/>
</g>
<path d="M25.1625 9.24375L22.5328 8.83256V5.29895H25.1625V9.24375Z" fill="#444444"/>
</svg>
