<svg width="128" height="128" viewBox="0 0 128 128" fill="none" xmlns="http://www.w3.org/2000/svg">
<g clip-path="url(#clip0_535_18633)">
<path d="M118.582 121.392C113.554 121.392 109.383 117.418 109.184 112.349C107.201 61.8832 66.1167 20.7985 15.6506 18.8162C10.4565 18.6122 6.41149 14.2364 6.61528 9.04232C6.81933 3.84828 11.1987 -0.195014 16.3892 0.00702479C45.6801 1.15752 73.2463 13.2262 94.0099 33.9895C114.773 54.7531 126.842 82.3193 127.992 111.61C128.196 116.804 124.151 121.18 118.957 121.384C118.832 121.389 118.706 121.392 118.582 121.392Z" fill="#F2F2F2"/>
<path d="M89.9594 120.137C85.6545 120.137 82.0547 116.767 81.8213 112.417C79.8988 76.5776 51.4226 48.1014 15.5833 46.1789C11.0848 45.9377 7.63377 42.0952 7.87522 37.5969C8.11641 33.0985 11.9614 29.6475 16.4572 29.8887C37.7494 31.0307 57.7975 39.9817 72.908 55.0924C88.0185 70.2032 96.9697 90.251 98.1117 111.543C98.3531 116.042 94.9019 119.884 90.4036 120.125C90.2556 120.133 90.1075 120.137 89.9594 120.137Z" fill="#F2F2F2"/>
<path d="M63.8881 117.627C60.9749 117.627 58.5038 115.388 58.2656 112.434C56.4194 89.5385 38.4615 71.5806 15.5661 69.7344C12.4574 69.4837 10.1406 66.7603 10.3911 63.6516C10.6418 60.543 13.3662 58.2277 16.4739 58.4767C30.1367 59.5785 43.0158 65.5395 52.738 75.2618C62.4602 84.984 68.4213 97.863 69.5231 111.526C69.7738 114.635 67.457 117.358 64.3481 117.609C64.1938 117.621 64.0402 117.627 63.8881 117.627Z" fill="#F2F2F2"/>
<path d="M42.9061 115.117C41.3605 115.117 40.0145 113.975 39.8012 112.401C38.0996 99.8528 28.1469 89.9002 15.5984 88.1985C13.8815 87.9656 12.6783 86.3849 12.9112 84.6682C13.1441 82.9513 14.7245 81.7488 16.4415 81.981C31.7766 84.0606 43.9391 96.2234 46.0187 111.558C46.2517 113.275 45.0485 114.856 43.3315 115.089C43.1887 115.108 43.0464 115.117 42.9061 115.117Z" fill="#F2F2F2"/>
<path d="M15.0588 128C23.3756 128 30.1176 121.258 30.1176 112.941C30.1176 104.624 23.3756 97.8824 15.0588 97.8824C6.74207 97.8824 0 104.624 0 112.941C0 121.258 6.74207 128 15.0588 128Z" fill="url(#paint0_linear_535_18633)"/>
<path d="M15.0588 128C23.3756 128 30.1176 121.258 30.1176 112.941C30.1176 104.624 23.3756 97.8824 15.0588 97.8824C6.74207 97.8824 0 104.624 0 112.941C0 121.258 6.74207 128 15.0588 128Z" fill="url(#paint1_linear_535_18633)"/>
<path d="M15.0588 128C23.3756 128 30.1176 121.258 30.1176 112.941C30.1176 104.624 23.3756 97.8824 15.0588 97.8824C6.74207 97.8824 0 104.624 0 112.941C0 121.258 6.74207 128 15.0588 128Z" fill="url(#paint2_linear_535_18633)"/>
<path d="M103.153 49.6941C116.875 49.6941 128 38.5697 128 24.8471C128 11.1244 116.875 0 103.153 0C89.4301 0 78.3057 11.1244 78.3057 24.8471C78.3057 38.5697 89.4301 49.6941 103.153 49.6941Z" fill="url(#paint3_linear_535_18633)"/>
<path d="M103.153 49.6941C116.875 49.6941 128 38.5697 128 24.8471C128 11.1244 116.875 0 103.153 0C89.4301 0 78.3057 11.1244 78.3057 24.8471C78.3057 38.5697 89.4301 49.6941 103.153 49.6941Z" fill="url(#paint4_linear_535_18633)"/>
<path d="M103.153 49.6941C116.875 49.6941 128 38.5697 128 24.8471C128 11.1244 116.875 0 103.153 0C89.4301 0 78.3057 11.1244 78.3057 24.8471C78.3057 38.5697 89.4301 49.6941 103.153 49.6941Z" fill="url(#paint5_linear_535_18633)"/>
<path d="M85.5829 42.4167C95.2863 52.1201 111.018 52.1201 120.722 42.4167C127.184 35.9549 129.336 26.8208 127.192 18.5725H79.1131C76.9685 26.8208 79.1211 35.9547 85.5829 42.4167Z" fill="url(#paint6_linear_535_18633)"/>
<path d="M127.855 22.2067L116.872 11.2233L89.542 38.5536L100.541 49.5528C107.74 50.3093 115.205 47.9337 120.723 42.4167C126.247 36.8923 128.621 29.4144 127.855 22.2067Z" fill="url(#paint7_linear_535_18633)"/>
<path d="M116.805 34.0756L107.59 24.8596L116.757 15.6923C117.978 14.4708 118.071 12.4672 116.872 11.2236C115.651 9.95664 113.634 9.94258 112.393 11.1814L103.153 20.4223L93.9127 11.1812C92.6716 9.94233 90.655 9.95639 89.434 11.2233C88.2353 12.4672 88.3274 14.4705 89.5489 15.692L98.7162 24.8594L89.501 34.0754C88.2757 35.3006 88.2757 37.2874 89.501 38.5127C90.1134 39.1251 90.9165 39.4313 91.7197 39.4313C92.5228 39.4313 93.3234 39.1251 93.9358 38.5127L103.153 29.2962L112.37 38.5129C112.982 39.1253 113.783 39.4315 114.586 39.4315C115.389 39.4315 116.192 39.1253 116.805 38.5129C118.03 37.2877 118.03 35.3009 116.805 34.0756Z" fill="#F2F2F2"/>
</g>
<defs>
<linearGradient id="paint0_linear_535_18633" x1="30.1176" y1="97.8824" x2="-1.5818" y2="101.18" gradientUnits="userSpaceOnUse">
<stop stop-color="#5956E0"/>
<stop offset="1" stop-color="#3A38AE"/>
</linearGradient>
<linearGradient id="paint1_linear_535_18633" x1="30.1176" y1="97.8824" x2="21.5263" y2="100.219" gradientUnits="userSpaceOnUse">
<stop stop-color="#6764FE"/>
<stop offset="1" stop-color="#3A38AE" stop-opacity="0"/>
</linearGradient>
<linearGradient id="paint2_linear_535_18633" x1="0.748538" y1="129.076" x2="8.7454" y2="127.512" gradientUnits="userSpaceOnUse">
<stop stop-color="#39369D"/>
<stop offset="1" stop-color="#3A38AE" stop-opacity="0"/>
</linearGradient>
<linearGradient id="paint3_linear_535_18633" x1="128" y1="-6.67247e-06" x2="75.6957" y2="5.44183" gradientUnits="userSpaceOnUse">
<stop stop-color="#5956E0"/>
<stop offset="1" stop-color="#3A38AE"/>
</linearGradient>
<linearGradient id="paint4_linear_535_18633" x1="128" y1="0" x2="113.824" y2="3.85615" gradientUnits="userSpaceOnUse">
<stop stop-color="#6764FE"/>
<stop offset="1" stop-color="#3A38AE" stop-opacity="0"/>
</linearGradient>
<linearGradient id="paint5_linear_535_18633" x1="79.5408" y1="51.4689" x2="92.7356" y2="48.8887" gradientUnits="userSpaceOnUse">
<stop stop-color="#39369D"/>
<stop offset="1" stop-color="#3A38AE" stop-opacity="0"/>
</linearGradient>
<linearGradient id="paint6_linear_535_18633" x1="103.153" y1="29.8667" x2="103.153" y2="49.1939" gradientUnits="userSpaceOnUse">
<stop stop-color="#4643C1" stop-opacity="0"/>
<stop offset="0.19" stop-color="#4745C4" stop-opacity="0.2"/>
<stop offset="0.703" stop-color="#4A48C8" stop-opacity="0.67"/>
<stop offset="1" stop-color="#5956E0"/>
</linearGradient>
<linearGradient id="paint7_linear_535_18633" x1="108.769" y1="25.1829" x2="108.769" y2="49.0714" gradientUnits="userSpaceOnUse">
<stop stop-color="#2F2CA4" stop-opacity="0"/>
<stop offset="0.19" stop-color="#1A1893" stop-opacity="0.2"/>
<stop offset="0.703" stop-color="#403EB5" stop-opacity="0.67"/>
<stop offset="1" stop-color="#5956E0"/>
</linearGradient>
<clipPath id="clip0_535_18633">
<rect width="128" height="128" fill="white"/>
</clipPath>
</defs>
</svg>
