<svg width="20" height="20" viewBox="0 0 20 20" fill="none" xmlns="http://www.w3.org/2000/svg">
<g clip-path="url(#clip0_528_18268)">
<path fill-rule="evenodd" clip-rule="evenodd" d="M10.835 19.3221C10.7169 19.3221 10.6036 19.2752 10.5201 19.1917C10.4366 19.1082 10.3896 18.9949 10.3896 18.8768C10.3896 18.7587 10.4366 18.6454 10.5201 18.5619C10.6036 18.4784 10.7169 18.4315 10.835 18.4315H15.6146C15.9392 18.4307 16.2502 18.3014 16.4797 18.0719C16.7092 17.8424 16.8385 17.5314 16.8393 17.2069V16.6249C16.6348 16.6643 16.427 16.6841 16.2188 16.6841H15.2706C15.1525 16.6841 15.0392 16.6371 14.9557 16.5536C14.8722 16.4701 14.8253 16.3569 14.8253 16.2388V10.5665C14.8253 10.4484 14.8722 10.3351 14.9557 10.2516C15.0392 10.1681 15.1525 10.1212 15.2706 10.1212H16.2186C16.4268 10.1211 16.6346 10.1409 16.839 10.1804V9.37237C16.8394 9.05207 16.8173 8.73214 16.7728 8.41495C16.7474 8.23502 16.7152 8.05803 16.6763 7.88399L16.3363 8.03985C16.2293 8.08874 16.1072 8.09313 15.997 8.05202C15.8867 8.01092 15.7973 7.92771 15.7484 7.82068L15.3462 6.94367C14.8749 5.91671 14.1198 5.04592 13.17 4.434C12.2255 3.82313 11.1248 3.49814 10 3.49814C8.87524 3.49814 7.77445 3.82313 6.83004 4.434C5.88015 5.04592 5.12505 5.91671 4.6538 6.94367L4.25175 7.82068C4.20285 7.92771 4.11343 8.01092 4.00316 8.05202C3.8929 8.09313 3.77083 8.08874 3.66379 8.03985L3.32428 7.88417C3.28366 8.06536 3.25042 8.24867 3.22457 8.43409C3.18184 8.74502 3.16062 9.05852 3.16104 9.37237V10.1804C3.36551 10.1409 3.57329 10.1211 3.78154 10.1212H4.7295C4.8476 10.1212 4.96087 10.1681 5.04438 10.2516C5.1279 10.3351 5.17481 10.4484 5.17481 10.5665V16.2388C5.17481 16.3569 5.1279 16.4701 5.04438 16.5536C4.96087 16.6371 4.8476 16.6841 4.7295 16.6841H3.78147C3.13243 16.6848 2.4978 16.4928 1.95799 16.1324C1.41818 15.7721 0.997497 15.2596 0.74925 14.6599C0.501004 14.0602 0.436369 13.4003 0.563537 12.7639C0.690705 12.1274 1.00395 11.543 1.46358 11.0848C1.70087 10.8474 1.97289 10.6475 2.2703 10.4919V9.37237C2.27102 8.74336 2.34828 8.11678 2.50038 7.50643L1.90971 7.23554C1.80267 7.18663 1.71945 7.09722 1.67834 6.98695C1.63723 6.87669 1.64161 6.75461 1.6905 6.64758L2.09266 5.77057C2.78444 4.25416 3.89766 2.96864 5.29964 2.06724C6.70162 1.16585 8.33323 0.686584 9.99998 0.686584C11.6667 0.686584 13.2983 1.16585 14.7003 2.06724C16.1023 2.96864 17.2155 4.25416 17.9073 5.77057L18.3095 6.64758C18.3584 6.75461 18.3627 6.87668 18.3216 6.98694C18.2805 7.09721 18.1973 7.18663 18.0903 7.23554L17.499 7.50666C17.6518 8.11679 17.7293 8.74335 17.7297 9.37233V10.4919C18.0271 10.6475 18.2991 10.8474 18.5364 11.0847C18.8418 11.3885 19.0841 11.7497 19.2495 12.1475C19.4149 12.5453 19.5 12.9718 19.5 13.4026C19.5 13.8334 19.4149 14.2599 19.2495 14.6577C19.0841 15.0554 18.8418 15.4166 18.5364 15.7204C18.2992 15.9578 18.0272 16.1577 17.7299 16.3133V17.2069C17.729 17.7676 17.5058 18.3051 17.1094 18.7016C16.7129 19.0981 16.1754 19.3212 15.6146 19.3221L10.835 19.3221Z" fill="#333333"/>
</g>
<defs>
<clipPath id="clip0_528_18268">
<rect width="19" height="19" fill="white" transform="translate(0.5 0.5)"/>
</clipPath>
</defs>
</svg>
