<svg width="24" height="24" viewBox="0 0 24 24" fill="none" xmlns="http://www.w3.org/2000/svg">
<path fill-rule="evenodd" clip-rule="evenodd" d="M12.9019 2.41554C12.3065 2.29647 11.6935 2.29647 11.0981 2.41554C9.77522 2.68012 8.63523 3.51226 7.98005 4.69159L1.79413 15.8262C1.43727 16.4686 1.25 17.1913 1.25 17.9261C1.25 20.3141 3.18588 22.25 5.57391 22.25H18.4261C20.8141 22.25 22.75 20.3141 22.75 17.9261C22.75 17.1913 22.5627 16.4686 22.2059 15.8262L16.02 4.69159C15.3648 3.51226 14.2248 2.68012 12.9019 2.41554ZM12 13.7501C11.5858 13.7501 11.25 13.4143 11.25 13.0001V9.00006C11.25 8.58585 11.5858 8.25006 12 8.25006C12.4142 8.25006 12.75 8.58585 12.75 9.00006V13.0001C12.75 13.4143 12.4142 13.7501 12 13.7501ZM12.75 16.5001C12.75 16.9143 12.4142 17.2501 12 17.2501C11.5858 17.2501 11.25 16.9143 11.25 16.5001V16.0001C11.25 15.5858 11.5858 15.2501 12 15.2501C12.4142 15.2501 12.75 15.5858 12.75 16.0001V16.5001Z" fill="white"/>
</svg>
