<svg width="20" height="20" viewBox="0 0 20 20" fill="none" xmlns="http://www.w3.org/2000/svg">
<path d="M16.0999 5.29999H4.0999C3.43716 5.29999 2.8999 5.83725 2.8999 6.49999V8.09999C2.8999 8.76273 3.43716 9.29999 4.0999 9.29999H6.4999H13.6999H16.0999C16.7626 9.29999 17.2999 8.76273 17.2999 8.09999V6.49999C17.2999 5.83725 16.7626 5.29999 16.0999 5.29999Z" fill="#5956E0"/>
<path d="M10.1001 4.09998C10.1001 2.99541 10.9955 2.09998 12.1001 2.09998H12.5001C13.3838 2.09998 14.1001 2.81632 14.1001 3.69998V3.69998C14.1001 4.58363 13.3838 5.29998 12.5001 5.29998H10.1001V4.09998Z" stroke="#5956E0" stroke-width="1.2"/>
<path d="M10.1001 4.09998C10.1001 2.99541 9.20467 2.09998 8.1001 2.09998H7.7001C6.81644 2.09998 6.1001 2.81632 6.1001 3.69998V3.69998C6.1001 4.58363 6.81644 5.29998 7.7001 5.29998H10.1001V4.09998Z" stroke="#5956E0" stroke-width="1.2"/>
<path fill-rule="evenodd" clip-rule="evenodd" d="M3.7 10.5V14.9C3.7 16.6673 5.13269 18.1 6.9 18.1H9.45996L9.45996 10.5H3.7ZM10.66 10.5L10.66 18.1H13.3C15.0673 18.1 16.5 16.6673 16.5 14.9V10.5H10.66Z" fill="#5956E0"/>
</svg>
