<svg width="265" height="237" viewBox="0 0 265 237" fill="none" xmlns="http://www.w3.org/2000/svg">
<g clip-path="url(#clip0_533_18498)">
<path d="M70.169 200.843L48.542 216.228L49.0067 216.882L70.6337 201.497L70.169 200.843Z" fill="#5956E0"/>
<path d="M72.9126 208.298L59.2197 235.643L59.9368 236.003L73.6297 208.658L72.9126 208.298Z" fill="#5956E0"/>
<path d="M218.467 32.8344L208.383 50.7776L209.082 51.1711L219.166 33.2278L218.467 32.8344Z" fill="#5956E0"/>
<path d="M240.53 32.1283L216.789 49.1759L217.257 49.8281L240.998 32.7805L240.53 32.1283Z" fill="#5956E0"/>
<path d="M227.462 144.13L227.331 144.922L254.528 149.429L254.659 148.637L227.462 144.13Z" fill="#5956E0"/>
<path d="M233.068 149.066L232.627 149.736L252.194 162.645L252.636 161.975L233.068 149.066Z" fill="#5956E0"/>
<path d="M94.205 45.376L93.4134 45.2534C93.4239 45.1833 94.4958 38.0675 93.4204 30.7239C92.5903 25.0418 90.7759 20.8004 88.0018 18.0312C87.8056 19.5946 87.4273 21.0563 86.8494 22.3322C85.3362 25.6763 82.6742 27.4815 79.147 27.5621C74.1836 27.6708 70.8666 24.7614 69.532 22.2341C68.3727 20.0363 68.3972 17.7193 69.5986 16.0367C71.3499 13.5865 75.3045 12.7067 80.7267 13.5655C83.2591 13.9651 85.4728 14.9291 87.3468 16.4223C87.6165 10.9576 85.7706 4.54987 82.3869 0.518784L83.0034 0C86.6252 4.31502 88.5412 11.266 88.0998 17.0638C91.2523 19.9697 93.3294 24.5371 94.2156 30.6223C95.3049 38.085 94.2156 45.3024 94.205 45.376ZM70.5688 16.1103C70.4533 16.2365 70.3482 16.3662 70.2501 16.5029C69.2273 17.9331 69.2273 19.9346 70.2431 21.859C71.469 24.183 74.5339 26.8611 79.1294 26.7594C82.3274 26.6893 84.7443 25.0418 86.1173 22.0027C86.7338 20.6427 87.1156 19.0583 87.2767 17.3617C85.4273 15.7738 83.1996 14.7713 80.5971 14.3577C75.8124 13.6005 72.2817 14.221 70.5688 16.1103Z" fill="black"/>
<path d="M253.854 102.989C252.25 103.213 250.684 102.747 249.381 101.615C246.379 99.0036 245.668 93.5283 247.567 87.6604C247.921 86.5668 248.383 85.4346 248.954 84.3024C244.288 83.2297 239.763 83.8958 235.451 86.3004C231.325 88.6034 228.957 91.7266 228.933 91.7581L228.292 91.2779C228.39 91.1447 230.768 88.004 235.034 85.6169C238.316 83.7801 243.255 82.1396 249.336 83.5768C252.197 78.3434 257.392 73.3273 264.923 72.6578L264.993 73.457C257.868 74.0914 252.908 78.8096 250.134 83.7836C251.122 84.057 252.138 84.411 253.178 84.8597C259.665 87.6534 260.688 91.8773 260.72 94.1452C260.769 97.5664 258.632 101.061 255.641 102.449C255.052 102.726 254.45 102.905 253.854 102.989ZM249.756 84.5022C249.168 85.6484 248.691 86.8016 248.334 87.9093C246.534 93.4687 247.154 98.611 249.91 101.012C251.469 102.365 253.385 102.621 255.311 101.724C258.029 100.462 259.97 97.279 259.928 94.1593C259.879 90.5768 257.371 87.5378 252.87 85.5993C251.823 85.1471 250.786 84.7791 249.756 84.5022Z" fill="black"/>
<path d="M30.477 164.893C29.9586 164.977 29.4051 164.98 28.8237 164.9C26.0636 164.507 24.2176 162.786 23.7658 160.171C23.1528 156.634 25.1073 151.709 29.8255 147.615C28.4629 146.139 26.7501 144.821 24.659 143.798C12.7918 138.011 0.549923 145.533 0.427329 145.61L0 144.93C0.126097 144.849 12.7358 137.092 25.0058 143.076C27.2054 144.148 29.0023 145.543 30.4314 147.1C31.7309 146.045 33.2231 145.053 34.9044 144.166C41.4019 140.741 46.6944 142.01 49.9905 143.679C53.5527 145.48 55.5493 148.053 55.6333 148.162L54.9958 148.649C54.9748 148.625 53.0063 146.094 49.5982 144.38C45.0552 142.094 40.239 142.259 35.2757 144.874C33.6539 145.729 32.2178 146.69 30.9638 147.713C34.6101 152.084 35.5454 157.546 34.4981 160.97C33.8255 163.2 32.3719 164.584 30.477 164.893ZM30.3649 148.228C25.9059 152.13 23.997 156.816 24.5574 160.034C24.9532 162.316 26.5084 163.76 28.9393 164.104C31.237 164.43 32.9884 163.203 33.7415 160.739C34.7257 157.514 33.829 152.368 30.3649 148.228Z" fill="black"/>
<path d="M43.0026 75.3815H40.1094L42.155 73.3379L41.5876 72.77L39.542 74.8171V71.9218H38.7399V74.8171L36.6978 72.77L36.1304 73.3379L38.1759 75.3815H35.2827V76.1842H38.1759L36.1304 78.2313L36.6978 78.7991L38.7399 76.7521V79.6474H39.542V76.7521L41.5876 78.7991L42.155 78.2313L40.1094 76.1842H43.0026V75.3815Z" fill="black"/>
<path d="M39.1428 85.1893C33.9624 85.1893 29.7451 80.9725 29.7451 75.7846C29.7451 70.6003 33.9589 66.3799 39.1428 66.3799C44.3268 66.3799 48.5406 70.5968 48.5406 75.7846C48.5406 80.969 44.3233 85.1893 39.1428 85.1893ZM39.1428 67.1827C34.4037 67.1827 30.5472 71.042 30.5472 75.7846C30.5472 80.5273 34.4037 84.3866 39.1428 84.3866C43.882 84.3866 47.7385 80.5273 47.7385 75.7846C47.7385 71.042 43.882 67.1827 39.1428 67.1827Z" fill="#5956E0"/>
<path d="M218.617 206.553H215.724L217.77 204.506L217.202 203.938L215.16 205.985V203.093H214.358V205.985L212.313 203.938L211.745 204.506L213.791 206.553H210.897V207.356H213.791L211.745 209.399L212.313 209.967L214.358 207.924V210.816H215.16V207.924L217.202 209.967L217.77 209.399L215.724 207.356H218.617V206.553Z" fill="black"/>
<path d="M214.757 216.357C209.577 216.357 205.359 212.141 205.359 206.953C205.359 201.765 209.573 197.548 214.757 197.548C219.938 197.548 224.155 201.765 224.155 206.953C224.155 212.141 219.938 216.357 214.757 216.357ZM214.757 198.354C210.018 198.354 206.162 202.214 206.162 206.956C206.162 211.699 210.018 215.558 214.757 215.558C219.496 215.558 223.353 211.699 223.353 206.956C223.353 202.214 219.496 198.354 214.757 198.354Z" fill="#5956E0"/>
<path d="M184.827 13.7303H182.567L184.165 12.1284L183.72 11.6867L182.122 13.2851V11.0242H181.495V13.2851L179.898 11.6867L179.457 12.1284L181.054 13.7303H178.795V14.3578H181.054L179.457 15.9562L179.898 16.3978L181.495 14.7994V17.0603H182.122V14.7994L183.72 16.3978L184.165 15.9562L182.567 14.3578H184.827V13.7303Z" fill="black"/>
<path d="M181.811 21.3929C177.762 21.3929 174.466 18.0944 174.466 14.0423C174.466 9.99016 177.762 6.69167 181.811 6.69167C185.86 6.69167 189.156 9.99016 189.156 14.0423C189.156 18.0944 185.86 21.3929 181.811 21.3929ZM181.811 7.31912C178.105 7.31912 175.093 10.3337 175.093 14.0423C175.093 17.7509 178.105 20.7654 181.811 20.7654C185.517 20.7654 188.529 17.7509 188.529 14.0423C188.529 10.3337 185.513 7.31912 181.811 7.31912Z" fill="#5956E0"/>
<path d="M186.417 128.354H184.158L185.755 126.755L185.31 126.314L183.713 127.912V125.651H183.086V127.912L181.489 126.314L181.047 126.755L182.645 128.354H180.385V128.981H182.645L181.047 130.583L181.489 131.025L183.086 129.426V131.687H183.713V129.426L185.31 131.025L185.755 130.583L184.158 128.981H186.417V128.354Z" fill="black"/>
<path d="M183.401 136.02C179.352 136.02 176.056 132.721 176.056 128.669C176.056 124.617 179.352 121.318 183.401 121.318C187.45 121.318 190.746 124.617 190.746 128.669C190.746 132.721 187.45 136.02 183.401 136.02ZM183.401 121.946C179.695 121.946 176.683 124.96 176.683 128.669C176.683 132.378 179.695 135.392 183.401 135.392C187.107 135.392 190.119 132.378 190.119 128.669C190.119 124.96 187.104 121.946 183.401 121.946Z" fill="#5956E0"/>
<path d="M214.757 144.274L199.086 67.8871L132.167 76.7485L69.1748 101.71L83.8756 188.052L178.774 181.469L214.757 144.274ZM178.554 180.158L163.622 90.9344L198.368 69.7134L213.598 143.938L178.554 180.158ZM132.441 77.7896L197.149 69.2016L162.858 90.1457L73.8544 101.131L132.441 77.7896ZM84.7688 186.92L70.4183 102.635L162.592 91.2604L177.576 180.796L84.7688 186.92Z" fill="#5956E0"/>
<path d="M70.1519 102.172L84.2957 187.33L177.87 181.29L162.798 90.6925L70.1519 102.172Z" fill="#5956E0"/>
<path d="M80.1486 194.568L74.1484 160.721L74.94 160.581L80.8141 193.724L107.652 192.073L107.701 192.872L80.1486 194.568Z" fill="black"/>
<path d="M184.277 77.9016L138.14 83.8641L157.124 74.0773L156.511 72.889L146.399 78.1014C150.602 74.7293 154.311 70.7964 157.275 66.5199C162.031 59.6566 164.154 52.9054 162.956 48.4641C162.038 45.0675 159.243 43.3604 155.089 43.6549C148.266 44.1386 142.777 51.1597 138.784 64.5219C138.027 67.0527 137.397 69.5871 136.882 71.9496C136.588 66.1554 135.446 60.3506 133.509 55.0576C130.448 46.701 125.824 40.8086 121.446 39.6869C119.214 39.1155 115.067 39.3223 112.395 47.1742C109.361 56.0777 112.367 65.4333 121.088 74.2281C126.276 79.4615 132.09 83.0719 134.283 84.3479L134.245 84.3689L100.013 88.7926L100.184 90.1176L130.752 86.1671L112.286 95.6875L127.309 185.104L128.626 184.883L113.764 96.4306L134.647 85.6659L183.205 79.3879L198.894 160.122L200.207 159.866L184.277 77.9016ZM136.71 80.2467C138.224 70.3442 143.176 45.8422 155.18 44.9869C158.679 44.738 160.921 46.063 161.664 48.8112C162.746 52.8142 160.641 59.306 156.175 65.7558C151.271 72.8365 144.269 78.9462 136.367 83.0754C136.507 82.143 136.623 81.1966 136.71 80.2467ZM113.656 47.6053C114.745 44.405 116.686 40.8226 119.908 40.8226C120.29 40.8226 120.693 40.8717 121.109 40.9803C128.434 42.8627 137.159 60.8413 135.4 79.9242C135.187 81.3228 135.04 82.4445 134.949 83.1876C132.815 81.9502 127.103 78.4029 122.01 73.2641C113.572 64.7392 110.762 56.1057 113.656 47.6053Z" fill="black"/>
<path d="M206.449 84.5898L202.175 64.6833L191.426 65.9592L191.331 65.16L202.806 63.8034L207.233 84.4216L206.449 84.5898Z" fill="black"/>
</g>
<defs>
<clipPath id="clip0_533_18498">
<rect width="265" height="237" fill="white"/>
</clipPath>
</defs>
</svg>
