<svg width="32" height="33" viewBox="0 0 32 33" fill="none" xmlns="http://www.w3.org/2000/svg">
<path fill-rule="evenodd" clip-rule="evenodd" d="M1.6665 9.83329C1.6665 5.59911 5.09899 2.16663 9.33317 2.16663H22.6665C26.9007 2.16663 30.3332 5.59911 30.3332 9.83329V23.1666C30.3332 27.4008 26.9007 30.8333 22.6665 30.8333H9.33317C5.09899 30.8333 1.6665 27.4008 1.6665 23.1666V9.83329ZM9.33317 4.16663C6.20356 4.16663 3.6665 6.70368 3.6665 9.83329V23.1666C3.6665 26.2962 6.20356 28.8333 9.33317 28.8333H22.6665C25.7961 28.8333 28.3332 26.2962 28.3332 23.1666V9.83329C28.3332 6.70368 25.7961 4.16663 22.6665 4.16663H9.33317Z" fill="#999999"/>
<path fill-rule="evenodd" clip-rule="evenodd" d="M2.6665 9.83329C2.6665 6.15139 5.65127 3.16663 9.33317 3.16663H22.6665C26.3484 3.16663 29.3332 6.15139 29.3332 9.83329V23.1666C29.3332 24.1364 29.1261 25.0578 28.7538 25.8891L29.2279 22.5698C29.2933 22.112 29.1169 21.653 28.7616 21.357L23.0169 16.5697C22.0633 15.7751 20.6611 15.8387 19.7834 16.7164L13.1312 23.3686C12.5064 23.9934 11.4933 23.9934 10.8685 23.3686L9.43746 21.9376C8.60787 21.108 7.30011 20.9998 6.34543 21.6817L3.89151 23.4345C3.54112 23.6848 3.33317 24.0888 3.33317 24.5195V25.8591C3.33317 25.9525 3.34295 26.0447 3.36188 26.1344C2.91682 25.2407 2.6665 24.2329 2.6665 23.1666V9.83329ZM25.6504 28.9128L28.2186 26.8583C27.0237 28.6517 24.9831 29.8333 22.6665 29.8333H9.33317C7.01418 29.8333 4.97174 28.6493 3.77741 26.8528C3.79564 26.8691 3.81436 26.8849 3.83357 26.9003L6.33739 28.9033C6.55157 29.0747 6.81339 29.1758 7.08715 29.1929L17.2361 29.8272C17.3007 29.8313 17.3655 29.8306 17.43 29.8252L24.9282 29.2004C25.1922 29.1784 25.4436 29.0783 25.6504 28.9128ZM10.6665 13.8333C9.19374 13.8333 7.99983 12.6394 7.99983 11.1666C7.99983 9.69387 9.19374 8.49996 10.6665 8.49996C12.1393 8.49996 13.3332 9.69387 13.3332 11.1666C13.3332 12.6394 12.1393 13.8333 10.6665 13.8333Z" fill="#999999"/>
</svg>
