<svg width="30" height="30" viewBox="0 0 30 30" fill="none" xmlns="http://www.w3.org/2000/svg">
<rect width="30" height="30" rx="15" fill="#12A141"/>
<path d="M14.5598 14.5583V11.8785H11.7848C11.6348 12.6691 11.542 13.5631 11.5218 14.5583H14.5598ZM14.5598 10.995V7.5C13.5294 7.75791 12.5445 8.9394 11.987 10.995H14.5598ZM10.6421 15.4417H7.5C7.5535 16.3674 7.77464 17.2626 8.14913 18.092H10.8909C10.7467 17.276 10.6628 16.3884 10.6421 15.4417ZM7.5 14.5583H10.6412C10.6598 13.6003 10.7432 12.7026 10.8889 11.8785H8.16263C7.78004 12.7162 7.55412 13.6216 7.5 14.5583ZM15.4402 7.50368V10.995H18.0053C17.7943 10.2253 17.5417 9.64618 17.3085 9.22331C16.7872 8.27793 16.1361 7.68326 15.4402 7.50368ZM14.5598 15.4417H11.5228C11.5459 16.4721 11.6441 17.3495 11.7848 18.092H14.5598L14.5598 15.4417ZM18.0789 8.7956C18.4265 9.426 18.7061 10.1649 18.9147 10.995H21.3602C21.0627 10.5232 20.7105 10.0806 20.3066 9.6754C19.4883 8.85429 18.5172 8.24586 17.4596 7.87661C17.6825 8.14548 17.8895 8.45215 18.0789 8.7956ZM18.4773 14.5583C18.4539 13.5141 18.3532 12.6273 18.2096 11.8785H15.4402V14.5583H18.4773ZM18.9312 18.9755C18.7222 19.8235 18.4392 20.5769 18.0852 21.2176C17.9002 21.5527 17.6981 21.8523 17.4808 22.116C18.5302 21.746 19.4938 21.1402 20.3066 20.3246C20.7188 19.911 21.0769 19.4583 21.3783 18.9755H18.9312ZM11.0762 10.995C11.2845 10.1591 11.565 9.41569 11.9148 8.78244C12.0999 8.44738 12.302 8.14762 12.5193 7.88392C11.4699 8.25387 10.5062 8.85974 9.69337 9.67537C9.28953 10.0806 8.93735 10.5232 8.63978 10.995L11.0762 10.995ZM19.1037 11.8785C19.2512 12.7026 19.337 13.6 19.358 14.5583H22.5C22.4459 13.6216 22.22 12.7162 21.8374 11.8785H19.1037ZM11.9211 21.2045C11.5694 20.5666 11.2874 19.8177 11.078 18.9755H8.62168C8.92309 19.4583 9.28123 19.911 9.6934 20.3246C10.5117 21.1456 11.4828 21.7541 12.5404 22.1234C12.3175 21.8545 12.1105 21.5479 11.9211 21.2045ZM15.4402 15.4417V18.092H18.2209C18.3676 17.3087 18.4583 16.4245 18.4783 15.4417H15.4402ZM22.5 15.4417H19.3589C19.3405 16.3883 19.2589 17.276 19.1164 18.092H21.8509C22.2253 17.2625 22.4465 16.3674 22.5 15.4417ZM15.4402 18.9755V22.5C16.4756 22.2409 17.4651 21.0495 18.0212 18.9755H15.4402ZM14.5598 22.4963V18.9755H11.9867C12.1993 19.76 12.4554 20.3485 12.6915 20.7768C13.2128 21.7221 13.8639 22.3167 14.5598 22.4963Z" fill="white"/>
</svg>
