<svg width="12" height="14" viewBox="0 0 12 14" fill="none" xmlns="http://www.w3.org/2000/svg">
<path fill-rule="evenodd" clip-rule="evenodd" d="M0.166748 5.9444C0.166748 2.7485 2.78337 0.166626 6.00008 0.166626C9.21679 0.166626 11.8334 2.7485 11.8334 5.9444C11.8334 7.93209 10.6743 9.89387 9.44579 11.3219C8.82411 12.0445 8.16427 12.6546 7.58225 13.0885C7.29171 13.3051 7.01245 13.4838 6.76039 13.6108C6.52409 13.7298 6.25424 13.8333 6.00008 13.8333C5.74592 13.8333 5.47607 13.7298 5.23977 13.6108C4.98771 13.4838 4.70845 13.3051 4.41791 13.0885C3.83589 12.6546 3.17605 12.0445 2.55437 11.3219C1.3259 9.89387 0.166748 7.93209 0.166748 5.9444ZM6 7.6666C4.89543 7.6666 4 6.77117 4 5.66661C4 4.56204 4.89543 3.66661 6 3.66661C7.10457 3.66661 8 4.56204 8 5.66661C8 6.77117 7.10457 7.6666 6 7.6666Z" fill="#5956E0"/>
</svg>
