<svg width="30" height="30" viewBox="0 0 30 30" fill="none" xmlns="http://www.w3.org/2000/svg">
<rect width="30" height="30" rx="15" fill="#E82E2E"/>
<path fill-rule="evenodd" clip-rule="evenodd" d="M8.4375 15.75C8.4375 13.7825 10.0325 12.1875 12 12.1875H18C19.9675 12.1875 21.5625 13.7825 21.5625 15.75V18.75C21.5625 20.7175 19.9675 22.3125 18 22.3125H12C10.0325 22.3125 8.4375 20.7175 8.4375 18.75V15.75ZM15.75 16.5C15.75 16.0858 15.4142 15.75 15 15.75C14.5858 15.75 14.25 16.0858 14.25 16.5V18C14.25 18.4142 14.5858 18.75 15 18.75C15.4142 18.75 15.75 18.4142 15.75 18V16.5Z" fill="white"/>
<path d="M18 12.75V11.25C18 9.59315 16.6569 8.25 15 8.25V8.25C13.3431 8.25 12 9.59315 12 11.25L12 12.75" stroke="white" stroke-width="1.5"/>
</svg>
