<svg width="17" height="17" viewBox="0 0 17 17" fill="none" xmlns="http://www.w3.org/2000/svg">
<path fill-rule="evenodd" clip-rule="evenodd" d="M4.0999 0.0999756H8.0999C9.86721 0.0999756 11.2999 1.53266 11.2999 3.29998V7.5L5.7 7.5C5.36863 7.5 5.1 7.76863 5.1 8.1C5.1 8.43137 5.36863 8.7 5.7 8.7L11.2999 8.7V12.9C11.2999 14.6673 9.86721 16.1 8.0999 16.1H4.0999C2.33259 16.1 0.899902 14.6673 0.899902 12.9V11.3V4.89998V3.29997C0.899902 1.53266 2.33259 0.0999756 4.0999 0.0999756ZM11.2999 8.7H14.6515L13.2757 10.0757C13.0414 10.3101 13.0414 10.6899 13.2757 10.9243C13.51 11.1586 13.8899 11.1586 14.1243 10.9243L15.9586 9.08995C16.5053 8.54322 16.5053 7.65679 15.9586 7.11005L14.1243 5.27574C13.8899 5.04142 13.51 5.04142 13.2757 5.27574C13.0414 5.51005 13.0414 5.88995 13.2757 6.12426L14.6515 7.5L11.2999 7.5V8.7Z" fill="#333333"/>
</svg>
