<svg width="22" height="23" viewBox="0 0 22 23" fill="none" xmlns="http://www.w3.org/2000/svg">
<path d="M11.3695 12.2906C11.3695 12.1617 11.3395 12.0629 11.275 11.9941C11.2105 11.9254 11.1031 11.8523 10.9441 11.7879C10.7852 11.7234 10.6434 11.659 10.5102 11.5945C10.377 11.5301 10.2609 11.4527 10.1664 11.3668C10.0719 11.2809 9.99453 11.1777 9.94727 11.066C9.8957 10.9543 9.86992 10.8125 9.86992 10.6535C9.86992 10.3828 9.96016 10.1594 10.1449 9.9832C10.3297 9.80703 10.5703 9.70391 10.8754 9.67813V9.17109H11.2578V9.68672C11.55 9.72969 11.782 9.85 11.9496 10.0477C12.1172 10.2453 12.2031 10.4988 12.2031 10.8039H11.3867C11.3867 10.6363 11.3523 10.5074 11.2922 10.4172C11.232 10.327 11.1375 10.284 11.0172 10.284C10.9098 10.284 10.8281 10.3184 10.7723 10.3828C10.7121 10.4516 10.6863 10.5418 10.6863 10.6578C10.6863 10.7738 10.7207 10.8727 10.7895 10.9414C10.8582 11.0102 10.9656 11.0789 11.116 11.1391C11.2664 11.1992 11.4082 11.268 11.5371 11.3367C11.6703 11.4055 11.782 11.4828 11.8809 11.5688C11.9754 11.6547 12.0527 11.7578 12.1086 11.8738C12.1645 11.9898 12.1902 12.1273 12.1902 12.2906C12.1902 12.5656 12.1043 12.7891 11.9281 12.9609C11.7563 13.1328 11.5156 13.2359 11.2191 13.266V13.7516H10.8281V13.266C10.4801 13.2273 10.2094 13.1113 10.0246 12.9051C9.83555 12.7031 9.74531 12.4367 9.74531 12.1016H10.5574C10.5574 12.2863 10.5961 12.4238 10.6777 12.5184C10.7594 12.6129 10.8754 12.6602 11.0215 12.6602C11.1289 12.6602 11.2148 12.6258 11.2793 12.5613C11.3438 12.4969 11.3695 12.4023 11.3695 12.2906ZM21.7852 5.48438H0.214844C0.0945313 5.48438 0 5.57891 0 5.69922V17.3008C0 17.4211 0.0945313 17.5156 0.214844 17.5156H21.7852C21.9055 17.5156 22 17.4211 22 17.3008V5.69922C22 5.57891 21.9055 5.48438 21.7852 5.48438ZM20.7109 16.2266H1.28906V6.77344H20.7109V16.2266ZM19.6023 9.33867C19.2629 9.38594 18.8805 9.3 18.5023 9.03789C18.193 8.65117 18.0941 8.23867 18.1457 7.87773C18.1629 7.74883 18.0641 7.63281 17.9309 7.63281H4.06484C3.93164 7.63281 3.83281 7.74883 3.8543 7.87773C3.90586 8.23867 3.80703 8.65117 3.49766 9.03789C3.11523 9.3 2.73711 9.38594 2.39766 9.33867C2.26875 9.32148 2.14844 9.42031 2.14844 9.54922V13.4465C2.14844 13.5797 2.26445 13.6785 2.39766 13.657C2.73711 13.6098 3.11953 13.6957 3.49766 13.9578C3.80703 14.3445 3.90586 14.757 3.8543 15.118C3.83711 15.2469 3.93594 15.3629 4.06484 15.3629H17.9309C18.0598 15.3629 18.1629 15.2469 18.1457 15.118C18.0941 14.757 18.193 14.3445 18.5023 13.9578C18.8848 13.6957 19.2629 13.6098 19.6023 13.657C19.7313 13.6742 19.8516 13.5754 19.8516 13.4465V9.54922C19.8516 9.42031 19.7355 9.32148 19.6023 9.33867ZM4.96289 12.5742C4.36992 12.5742 3.88867 12.093 3.88867 11.5C3.88867 10.907 4.36992 10.4258 4.96289 10.4258C5.55586 10.4258 6.03711 10.907 6.03711 11.5C6.03711 12.093 5.55586 12.5742 4.96289 12.5742ZM11 14.7227C9.22109 14.7227 7.77734 13.2789 7.77734 11.5C7.77734 9.72109 9.22109 8.27734 11 8.27734C12.7789 8.27734 14.2227 9.72109 14.2227 11.5C14.2227 13.2789 12.7789 14.7227 11 14.7227ZM17.0371 12.5742C16.4441 12.5742 15.9629 12.093 15.9629 11.5C15.9629 10.907 16.4441 10.4258 17.0371 10.4258C17.6301 10.4258 18.1113 10.907 18.1113 11.5C18.1113 12.093 17.6301 12.5742 17.0371 12.5742Z" fill="#12A141"/>
</svg>
