<svg width="30" height="30" viewBox="0 0 30 30" fill="none" xmlns="http://www.w3.org/2000/svg">
<rect width="30" height="30" rx="15" fill="#F9A220"/>
<path fill-rule="evenodd" clip-rule="evenodd" d="M14.8696 7.5C12.3483 7.5 10.3044 9.54392 10.3044 12.0652V13.1882C10.3044 14.2885 9.54205 15.2616 9.15682 16.2923C9.05543 16.5635 9 16.8572 9 17.1638C9 18.366 9.8589 19.3975 11.0497 19.5626C12.2322 19.7265 13.7098 19.8915 14.8696 19.8915C16.0293 19.8915 17.5069 19.7265 18.6894 19.5626C19.8802 19.3975 20.7391 18.366 20.7391 17.1638C20.7391 16.8572 20.6837 16.5635 20.5823 16.2923C20.1971 15.2616 19.4348 14.2886 19.4348 13.1882V12.0652C19.4348 9.54392 17.3909 7.5 14.8696 7.5Z" fill="white"/>
<path d="M11.0497 19.5626L11.1527 18.8197L11.1527 18.8197L11.0497 19.5626ZM18.6894 19.5626L18.7925 20.3055L18.7925 20.3055L18.6894 19.5626ZM20.5823 16.2923L19.8798 16.5549L20.5823 16.2923ZM9.15682 16.2923L8.45428 16.0297L9.15682 16.2923ZM11.0544 12.0652C11.0544 9.95813 12.7625 8.25 14.8696 8.25V6.75C11.9341 6.75 9.55435 9.12971 9.55435 12.0652H11.0544ZM11.0544 13.1882V12.0652H9.55435V13.1882H11.0544ZM9.75 17.1638C9.75 16.9482 9.78888 16.7434 9.85935 16.5548L8.45428 16.0297C8.32198 16.3837 8.25 16.7662 8.25 17.1638H9.75ZM11.1527 18.8197C10.35 18.7084 9.75 18.0093 9.75 17.1638H8.25C8.25 18.7228 9.36781 20.0865 10.9467 20.3055L11.1527 18.8197ZM14.8696 19.1415C13.7642 19.1415 12.3291 18.9828 11.1527 18.8197L10.9467 20.3055C12.1353 20.4703 13.6554 20.6415 14.8696 20.6415V19.1415ZM18.5864 18.8197C17.41 18.9828 15.975 19.1415 14.8696 19.1415V20.6415C16.0837 20.6415 17.6039 20.4703 18.7925 20.3055L18.5864 18.8197ZM19.9891 17.1638C19.9891 18.0093 19.3891 18.7084 18.5864 18.8197L18.7925 20.3055C20.3713 20.0865 21.4891 18.7228 21.4891 17.1638H19.9891ZM19.8798 16.5549C19.9503 16.7434 19.9891 16.9482 19.9891 17.1638H21.4891C21.4891 16.7662 21.4172 16.3837 21.2849 16.0297L19.8798 16.5549ZM18.6848 12.0652V13.1882H20.1848V12.0652H18.6848ZM14.8696 8.25C16.9767 8.25 18.6848 9.95813 18.6848 12.0652H20.1848C20.1848 9.1297 17.8051 6.75 14.8696 6.75V8.25ZM21.2849 16.0297C21.0803 15.4825 20.7434 14.8755 20.5433 14.4482C20.3169 13.9649 20.1848 13.5691 20.1848 13.1882H18.6848C18.6848 13.9076 18.9338 14.5485 19.1849 15.0845C19.4622 15.6765 19.6991 16.0714 19.8798 16.5549L21.2849 16.0297ZM9.55435 13.1882C9.55435 13.5691 9.42225 13.9649 9.19587 14.4482C8.99572 14.8755 8.65881 15.4825 8.45428 16.0297L9.85935 16.5548C10.04 16.0714 10.2769 15.6765 10.5542 15.0845C10.8053 14.5485 11.0544 13.9076 11.0544 13.1882H9.55435Z" fill="white"/>
<path d="M16.5 21.6255C16.1495 22.1527 15.5501 22.5001 14.8696 22.5001C14.189 22.5001 13.5897 22.1527 13.2391 21.6255" stroke="white" stroke-width="1.5" stroke-linecap="round"/>
</svg>
