<svg width="24" height="24" viewBox="0 0 24 24" fill="none" xmlns="http://www.w3.org/2000/svg">
<path d="M7.60676 23.1865L8.02271 20.5445L7.09617 20.523H2.67188L5.74654 1.0276C5.75608 0.968743 5.7871 0.913867 5.83243 0.874897C5.87776 0.835926 5.93582 0.814453 5.99626 0.814453H13.4562C15.9328 0.814453 17.642 1.32981 18.5343 2.34701C18.9526 2.8242 19.219 3.32285 19.3479 3.87162C19.4831 4.44742 19.4855 5.13536 19.3535 5.97441L19.3439 6.03565V6.57328L19.7622 6.81028C20.1146 6.99718 20.3945 7.21111 20.6092 7.45607C20.9671 7.86406 21.1986 8.3826 21.2964 8.99738C21.3974 9.62965 21.364 10.382 21.1986 11.2338C21.0077 12.2136 20.6991 13.067 20.2824 13.7652C19.899 14.4087 19.4107 14.9423 18.8309 15.3559C18.2774 15.7487 17.6197 16.047 16.8761 16.2379C16.1555 16.4256 15.334 16.5202 14.4329 16.5202H13.8523C13.4372 16.5202 13.0339 16.6697 12.7174 16.9377C12.4001 17.2113 12.1901 17.5851 12.1257 17.9939L12.082 18.2317L11.3471 22.8882L11.3137 23.0592C11.3049 23.1133 11.2898 23.1403 11.2676 23.1586C11.2477 23.1753 11.219 23.1865 11.1912 23.1865H7.60676Z" fill="#253B80"/>
<path d="M20.1586 6.09766C20.1364 6.24002 20.1109 6.38556 20.0823 6.53508C19.0985 11.5861 15.7327 13.331 11.4341 13.331H9.24541C8.71971 13.331 8.27673 13.7127 8.19481 14.2313L7.07422 21.3381L6.75689 23.3527C6.70361 23.693 6.96606 24 7.30963 24H11.1915C11.6512 24 12.0417 23.666 12.1141 23.2127L12.1523 23.0154L12.8831 18.3772L12.9301 18.1227C13.0016 17.6678 13.3929 17.3338 13.8526 17.3338H14.4332C18.1942 17.3338 21.1384 15.8068 21.999 11.388C22.3584 9.54213 22.1723 8.00083 21.2212 6.91682C20.9333 6.58995 20.5762 6.31875 20.1586 6.09766Z" fill="#179BD7"/>
<path d="M19.129 5.68735C18.9787 5.6436 18.8236 5.60384 18.6646 5.56805C18.5047 5.53306 18.3409 5.50204 18.1723 5.475C17.5822 5.37956 16.9356 5.33423 16.2429 5.33423H10.3957C10.2518 5.33423 10.115 5.36684 9.99253 5.42569C9.72292 5.55532 9.5225 5.81062 9.47399 6.12317L8.23012 14.0015L8.19434 14.2313C8.27625 13.7128 8.71924 13.331 9.24494 13.331H11.4336C15.7323 13.331 19.098 11.5853 20.0818 6.53514C20.1112 6.38563 20.1359 6.24008 20.1582 6.09772C19.9092 5.9657 19.6396 5.85277 19.3493 5.75654C19.2777 5.73268 19.2038 5.70961 19.129 5.68735Z" fill="#222D65"/>
<path d="M9.47421 6.12308C9.52272 5.81052 9.72314 5.55523 9.99275 5.42639C10.116 5.36753 10.252 5.33493 10.396 5.33493H16.2431C16.9358 5.33493 17.5824 5.38026 18.1725 5.47569C18.3411 5.50274 18.5049 5.53375 18.6648 5.56875C18.8238 5.60453 18.9789 5.6443 19.1292 5.68804C19.204 5.71031 19.278 5.73337 19.3503 5.75644C19.6406 5.85267 19.9102 5.9664 20.1592 6.09763C20.4518 4.23104 20.1568 2.96014 19.1475 1.80933C18.0349 0.5424 16.0267 0 13.4571 0H5.99712C5.47222 0 5.02446 0.381748 4.94334 0.901084L1.83607 20.5969C1.77483 20.9866 2.07546 21.3381 2.46834 21.3381H7.07397L8.23034 14.0014L9.47421 6.12308Z" fill="#253B80"/>
</svg>
