<svg width="24" height="24" viewBox="0 0 24 24" fill="none" xmlns="http://www.w3.org/2000/svg">
<g clip-path="url(#clip0_24_3447)">
<path d="M20.9997 6.00011C20.9997 3.52414 21.8877 2.31514 21.8957 2.30614C21.9701 2.20983 22.0069 2.0897 21.9992 1.96822C21.9915 1.84675 21.9397 1.73225 21.8537 1.64615L20.3537 0.146157C20.2773 0.0698758 20.1782 0.0203768 20.0713 0.00505878C19.9644 -0.0102593 19.8555 0.00942636 19.7607 0.0611732C19.7427 0.0701732 18.0157 1.00017 15.9997 1.00017C13.9947 1.00017 12.2557 0.0701732 12.2387 0.0611732C12.0897 -0.018842 11.9087 -0.0198263 11.7607 0.0611732C11.7427 0.0701732 10.0157 1.00017 7.99972 1.00017C5.99475 1.00017 4.25574 0.0701732 4.23873 0.0611732C4.04471 -0.0438262 3.80275 -0.009842 3.64675 0.147188L2.14676 1.64718C1.97074 1.82319 1.95274 2.10519 2.10274 2.30418C2.11174 2.31618 2.99973 3.52517 2.99973 6.00114C2.99973 7.12613 2.81772 7.90613 2.60674 8.80912C2.32174 10.0281 1.99976 11.4101 1.99976 14.0011C1.99976 18.7511 5.69372 20.9281 11.7777 23.949C11.8477 23.982 11.9237 24.0001 11.9997 24.0001C12.0757 24.0001 12.1517 23.982 12.2217 23.9481C18.3056 20.9271 21.9996 18.7501 21.9996 14.0001C21.9996 11.4081 21.6766 10.0272 21.3926 8.80814C21.1827 7.90608 20.9997 7.12613 20.9997 6.00011ZM17.3537 10.3541L15.0537 12.6541L15.9527 16.2501C15.9968 16.326 16.02 16.4123 16.0197 16.5C16.0197 16.78 15.7447 17.02 15.5097 17.0001H15.4997C15.4147 17.0001 15.3287 16.9781 15.2517 16.9341L11.9997 15.0761L8.74775 16.9341C8.57375 17.0331 8.35775 17.019 8.19777 16.8981C8.03778 16.7771 7.96578 16.5731 8.01477 16.3781L8.94575 12.6521L6.64574 10.3521C6.51173 10.2181 6.46476 10.0201 6.52476 9.84009C6.58476 9.66009 6.74076 9.5301 6.92774 9.5031L10.1497 9.04312L11.5397 5.80112C11.6967 5.43311 12.3017 5.43311 12.4587 5.80112L13.8487 9.04312L17.0706 9.5031C17.2587 9.5301 17.4147 9.66009 17.4736 9.84009C17.503 9.92848 17.5074 10.0233 17.4862 10.114C17.4651 10.2047 17.4192 10.2878 17.3537 10.3541Z" fill="black"/>
</g>
<defs>
<clipPath id="clip0_24_3447">
<rect width="24" height="24" fill="white"/>
</clipPath>
</defs>
</svg>
