<svg width="20" height="20" viewBox="0 0 20 20" fill="none" xmlns="http://www.w3.org/2000/svg">
<g clip-path="url(#clip0_485_6125)">
<path d="M10 11.1133C10.3074 11.1133 10.5566 10.8641 10.5566 10.5566C10.5566 10.2492 10.3074 10 10 10C9.69258 10 9.44336 10.2492 9.44336 10.5566C9.44336 10.8641 9.69258 11.1133 10 11.1133Z" fill="#333333"/>
<path d="M10 0.5C4.76914 0.5 0.5 4.7694 0.5 10C0.5 15.231 4.7694 19.5 10 19.5C15.2309 19.5 19.5 15.2306 19.5 10C19.5 4.76914 15.2306 0.5 10 0.5ZM10 2.76367C13.6116 2.76367 16.6136 5.42323 17.1507 8.88672H15.2203C13.9963 8.88672 12.8335 8.39558 12.0299 7.53924C10.9314 6.36859 9.06867 6.36822 7.97012 7.5392C7.16651 8.39558 6.00365 8.88672 4.77968 8.88672H2.84932C3.3864 5.42323 6.3884 2.76367 10 2.76367ZM10 12.2266C9.07924 12.2266 8.33008 11.4775 8.33008 10.5566C8.33008 9.63581 9.07924 8.88672 10 8.88672C10.9208 8.88672 11.6699 9.63581 11.6699 10.5566C11.6699 11.4775 10.9208 12.2266 10 12.2266ZM3.26168 12.6384C3.89885 12.3884 4.35893 12.2266 4.99023 12.2266C7.01967 12.2266 8.59797 14.0351 8.29226 16.067H8.29096C8.24563 16.3766 8.15687 16.6782 8.0273 16.963C5.84679 16.3444 4.08221 14.7267 3.26168 12.6384ZM11.9731 16.9629C11.8433 16.6782 11.7544 16.3766 11.709 16.067H11.7077C11.3515 13.6992 13.5373 11.7456 15.8029 12.3213C16.0417 12.3821 16.3406 12.4824 16.7383 12.6384C15.9178 14.7266 14.1534 16.3442 11.9731 16.9629Z" fill="#333333"/>
</g>
<defs>
<clipPath id="clip0_485_6125">
<rect width="19" height="19" fill="white" transform="translate(0.5 0.5)"/>
</clipPath>
</defs>
</svg>
