<svg width="20" height="20" viewBox="0 0 20 20" fill="none" xmlns="http://www.w3.org/2000/svg">
<path d="M9.07243 10.9432H7.83545C7.57927 10.9432 7.37158 10.7355 7.37158 10.4793C7.37158 10.2231 7.57927 10.0154 7.83545 10.0154H9.07243C9.32861 10.0154 9.5363 10.2231 9.5363 10.4793C9.5363 10.7355 9.32861 10.9432 9.07243 10.9432ZM12.1649 10.9432H10.9279C10.6717 10.9432 10.464 10.7355 10.464 10.4793C10.464 10.2231 10.6717 10.0154 10.9279 10.0154H12.1649C12.4211 10.0154 12.6287 10.2231 12.6287 10.4793C12.6287 10.7355 12.4211 10.9432 12.1649 10.9432Z" fill="#191919"/>
<path d="M15.5975 2.08331C14.3185 2.08331 13.2782 3.12392 13.2782 4.40265C13.2782 4.56822 13.2874 4.73336 13.3048 4.89744H5.10636C3.44819 4.89744 2.0835 6.26214 2.0835 7.92031C2.0835 9.57848 3.44819 10.9432 5.10636 10.9432H5.97998C6.23604 10.9432 6.44385 10.7354 6.44385 10.4793C6.44385 10.2233 6.23604 10.0154 5.97998 10.0154H5.10636C3.95699 10.0154 3.01123 9.06968 3.01123 7.92031C3.01123 6.77094 3.95699 5.82518 5.10636 5.82518H13.4978C13.6295 6.24603 13.8179 6.64928 14.0591 7.02068C14.2907 7.37727 14.5705 7.70207 14.866 8.00705C14.9946 8.13969 15.1644 8.30544 15.3515 8.39302C15.4992 8.46214 15.6575 8.48258 15.8149 8.39967C15.9912 8.30674 16.1518 8.15833 16.2983 8.01679C16.7039 7.63565 17.0556 7.19603 17.3237 6.70776C17.7127 6.00172 17.9167 5.20875 17.9168 4.40265C17.9168 3.12392 16.8765 2.08331 15.5975 2.08331ZM15.5975 4.86655C15.3413 4.86655 15.1336 4.65886 15.1336 4.40268C15.1336 4.1465 15.3413 3.93881 15.5975 3.93881C15.8537 3.93881 16.0614 4.1465 16.0614 4.40268C16.0614 4.65889 15.8537 4.86655 15.5975 4.86655ZM14.894 10.0154H14.0203C13.7643 10.0154 13.5565 10.2233 13.5565 10.4793C13.5565 10.7354 13.7643 10.9432 14.0203 10.9432H14.894C16.0433 10.9432 16.9891 11.8889 16.9891 13.0383C16.9891 14.1877 16.0433 15.1334 14.894 15.1334H8.88688V13.7418C8.88688 13.4858 8.67907 13.278 8.42302 13.278H7.03141V15.2881C7.03141 15.5441 6.8236 15.7519 6.56755 15.7519C6.31149 15.7519 6.10368 15.5441 6.10368 15.2881V13.278H4.71208C4.45602 13.278 4.24821 13.4858 4.24821 13.7418V15.1334H2.54736C2.29285 15.1334 2.0835 15.3428 2.0835 15.5973C2.0835 15.8518 2.29285 16.0612 2.54736 16.0612H4.24821V17.4528C4.24821 17.7088 4.45602 17.9166 4.71208 17.9166H8.42302C8.67907 17.9166 8.88688 17.7088 8.88688 17.4528V16.0612H14.894C16.5523 16.0612 17.9168 14.6966 17.9168 13.0383C17.9168 11.38 16.5523 10.0154 14.894 10.0154Z" fill="#191919"/>
</svg>
