<svg width="20" height="20" viewBox="0 0 20 20" fill="none" xmlns="http://www.w3.org/2000/svg">
<path fill-rule="evenodd" clip-rule="evenodd" d="M7.98423 1.76237C8.66174 1.59093 9.37071 1.5 10.1001 1.5C10.8295 1.5 11.5385 1.59094 12.216 1.7624C12.769 1.90233 13.0545 2.37986 13.1464 2.77682C13.2552 3.24704 13.5503 3.67064 14.0002 3.93038C14.4138 4.1692 14.8815 4.22531 15.3128 4.12361C15.7092 4.03015 16.2627 4.07468 16.6331 4.50696C17.3218 5.31069 17.865 6.24349 18.2215 7.26455C18.4343 7.87414 18.1046 8.42305 17.7565 8.70989C17.3546 9.04098 17.1001 9.54051 17.1001 10.1C17.1001 10.6595 17.3546 11.159 17.7565 11.4901C18.1046 11.7769 18.4343 12.3259 18.2215 12.9354C17.8651 13.9564 17.3219 14.8891 16.6333 15.6928C16.2629 16.1251 15.7093 16.1696 15.3129 16.0761C14.8815 15.9744 14.4138 16.0305 14.0001 16.2693C13.5502 16.5291 13.2551 16.9528 13.1463 17.4231C13.0545 17.8201 12.7689 18.2977 12.2159 18.4376C11.5384 18.6091 10.8294 18.7 10.1001 18.7C9.37074 18.7 8.66179 18.6091 7.9843 18.4376C7.43128 18.2977 7.14575 17.8201 7.05393 17.4231C6.94516 16.9528 6.65005 16.5291 6.2001 16.2693C5.7864 16.0305 5.31868 15.9744 4.88731 16.0761C4.49086 16.1697 3.93728 16.1252 3.56683 15.6928C2.87825 14.8891 2.33506 13.9564 1.97864 12.9355C1.76583 12.3259 2.09555 11.777 2.44369 11.4901C2.84554 11.159 3.10009 10.6595 3.10009 10.1C3.10009 9.54051 2.84554 9.04097 2.44369 8.70988C2.09555 8.42304 1.76583 7.87413 1.97864 7.26454C2.3351 6.24347 2.87837 5.31067 3.56707 4.50694C3.93749 4.07464 4.491 4.03012 4.88742 4.1236C5.31876 4.22531 5.78644 4.16921 6.2001 3.93038C6.65001 3.67063 6.94509 3.24703 7.0539 2.77681C7.14575 2.37984 7.43127 1.90229 7.98423 1.76237ZM10.1 12.5C8.77452 12.5 7.7 11.4255 7.7 10.1C7.7 8.77452 8.77452 7.7 10.1 7.7C11.4255 7.7 12.5 8.77452 12.5 10.1C12.5 11.4255 11.4255 12.5 10.1 12.5Z" fill="#333333"/>
</svg>
