<svg width="20" height="20" viewBox="0 0 20 20" fill="none" xmlns="http://www.w3.org/2000/svg">
<path fill-rule="evenodd" clip-rule="evenodd" d="M6.09985 5.29996C3.89071 5.29996 2.09985 7.09082 2.09985 9.29996V14.1C2.09985 16.3091 3.89071 18.1 6.09985 18.1H14.0999C16.2419 18.1 17.9907 16.4162 18.0949 14.3H14.4998C13.0639 14.3 11.8998 13.1359 11.8998 11.7C11.8998 10.264 13.0639 9.09996 14.4998 9.09996H18.0949C17.9907 6.98374 16.2419 5.29996 14.0999 5.29996H6.09985ZM14.4998 10.3H18.0999V13.1H14.4998C13.7266 13.1 13.0998 12.4732 13.0998 11.7C13.0998 10.9268 13.7266 10.3 14.4998 10.3ZM5.2498 13.7541C4.91843 13.7541 4.6498 14.0228 4.6498 14.3541C4.6498 14.6855 4.91843 14.9541 5.2498 14.9541H9.9998C10.3312 14.9541 10.5998 14.6855 10.5998 14.3541C10.5998 14.0228 10.3312 13.7541 9.9998 13.7541H5.2498ZM14.3539 10.9833C14.0225 10.9833 13.7539 11.2519 13.7539 11.5833C13.7539 11.9147 14.0225 12.1833 14.3539 12.1833H14.5122C14.8436 12.1833 15.1122 11.9147 15.1122 11.5833C15.1122 11.2519 14.8436 10.9833 14.5122 10.9833H14.3539Z" fill="#333333"/>
<path d="M16.09 4.4943C15.5132 2.9012 13.8283 1.87269 12.0529 2.2382L5.17232 3.65479C3.73521 3.95067 2.5709 4.89805 1.96191 6.15032C2.91188 4.90413 4.41198 4.09988 6.09992 4.09988H14.0999C14.8048 4.09988 15.477 4.24015 16.09 4.4943Z" fill="#333333"/>
</svg>
